<svg width="50" height="50" viewBox="0 0 50 50" fill="none" xmlns="http://www.w3.org/2000/svg">
<g clip-path="url(#clip0_23_44)">
<path d="M25.0003 4.16667C36.5066 4.16667 45.8337 13.4938 45.8337 25C45.8337 36.5062 36.5066 45.8333 25.0003 45.8333C13.4941 45.8333 4.16699 36.5062 4.16699 25C4.16699 13.4938 13.4941 4.16667 25.0003 4.16667ZM25.0003 8.33333C15.7962 8.33333 8.33366 15.7958 8.33366 25C8.33366 34.2042 15.7962 41.6667 25.0003 41.6667C34.2045 41.6667 41.667 34.2042 41.667 25C41.667 15.7958 34.2045 8.33333 25.0003 8.33333ZM33.8378 13.2146L36.7857 16.1604L29.0274 23.9229C29.1191 24.2667 29.167 24.6271 29.167 25C29.167 27.3021 27.3024 29.1667 25.0003 29.1667C22.6982 29.1667 20.8337 27.3021 20.8337 25C20.8337 22.6979 22.6982 20.8333 25.0003 20.8333C25.3732 20.8333 25.7337 20.8813 26.0774 20.9729L33.8399 13.2146H33.8378Z" fill="#4E6BFF"/>
<path opacity="0.5" d="M25.0003 10.4166C27.1212 10.4166 29.1357 10.8687 30.9545 11.6833L27.6982 14.9375C26.8378 14.7083 25.9337 14.5833 25.0003 14.5833C19.2482 14.5833 14.5837 19.2479 14.5837 25C14.5837 27.875 15.7503 30.4791 17.6337 32.3666L14.6878 35.3125L14.3628 34.977C11.917 32.3687 10.417 28.8583 10.417 25C10.417 16.9458 16.9462 10.4166 25.0003 10.4166ZM38.317 19.0479C39.1295 20.8645 39.5837 22.8812 39.5837 25C39.5837 29.027 37.9503 32.6729 35.3128 35.3125L32.367 32.3666C34.2503 30.4791 35.417 27.875 35.417 25C35.417 24.0666 35.2941 23.1625 35.0628 22.302L38.317 19.0479Z" fill="#4E6BFF"/>
</g>
<defs>
<clipPath id="clip0_23_44">
<rect width="50" height="50" fill="white"/>
</clipPath>
</defs>
</svg>
