<svg width="36" height="36" viewBox="0 0 36 36" fill="none" xmlns="http://www.w3.org/2000/svg">
<g clip-path="url(#clip0_18_19)">
<path d="M7.623 8.0154C5.32808 10.3973 3.9231 13.4967 3.64423 16.7925C3.36535 20.0883 4.22959 23.3797 6.09166 26.1133C7.95374 28.847 10.7001 30.8563 13.8692 31.8035C17.0383 32.7507 20.4368 32.5781 23.4936 31.3146C23.7006 29.9646 23.247 28.6686 23.0616 28.215C22.6476 27.207 21.2832 25.4844 19.0062 23.0958C18.3978 22.4568 18.4374 21.9654 18.6552 20.5092L18.6786 20.3454C18.8262 19.3482 19.0746 18.7578 22.4316 18.225C24.138 17.955 24.5862 18.6354 25.2072 19.5804L25.416 19.89C26.0064 20.754 26.4438 20.952 27.1044 21.2508C27.4014 21.3858 27.7704 21.5568 28.2654 21.8358C29.439 22.5072 29.439 23.265 29.439 24.9246V25.1136C29.439 25.8174 29.3706 26.4366 29.2626 26.9748C30.6439 25.2413 31.6064 23.2123 32.0753 21.0459C32.5441 18.8796 32.5067 16.6342 31.9659 14.4847C31.425 12.3351 30.3954 10.3394 28.9571 8.65285C27.5189 6.96631 25.7108 5.63447 23.6736 4.761C22.6782 5.4324 21.312 6.3846 20.835 7.038C20.592 7.371 20.2464 9.0756 19.125 9.216C18.8334 9.252 18.4392 9.2268 18.0216 9.1998C16.902 9.1278 15.372 9.0288 14.8824 10.359C14.571 11.2014 14.517 13.491 15.5232 14.679C15.6852 14.868 15.7158 15.219 15.606 15.6132C15.462 16.1298 15.1722 16.4448 15.0804 16.5096C14.9076 16.4088 14.562 16.0074 14.3262 15.7356C13.7628 15.0786 13.0572 14.2596 12.1464 14.0076C11.8152 13.9158 11.4516 13.8402 11.097 13.7646C10.1088 13.5576 8.991 13.3218 8.73 12.7674C8.5392 12.3606 8.541 11.8008 8.541 11.2104C8.541 10.4598 8.541 9.612 8.1738 8.7894C8.04614 8.49583 7.85853 8.2322 7.623 8.0154ZM18 36C8.0586 36 0 27.9414 0 18C0 8.0586 8.0586 0 18 0C27.9414 0 36 8.0586 36 18C36 27.9414 27.9414 36 18 36Z" fill="white"/>
</g>
<defs>
<clipPath id="clip0_18_19">
<rect width="36" height="36" fill="white"/>
</clipPath>
</defs>
</svg>
