<svg width="36" height="36" viewBox="0 0 36 36" fill="none" xmlns="http://www.w3.org/2000/svg">
<g clip-path="url(#clip0_18_10)">
<path d="M28.5 10.5H36V13.5H28.5V10.5ZM25.5 18H36V21H25.5V18ZM30 25.5H36V28.5H30V25.5ZM3 33C3 29.8174 4.26428 26.7652 6.51472 24.5147C8.76516 22.2643 11.8174 21 15 21C18.1826 21 21.2348 22.2643 23.4853 24.5147C25.7357 26.7652 27 29.8174 27 33H24C24 30.6131 23.0518 28.3239 21.364 26.636C19.6761 24.9482 17.3869 24 15 24C12.6131 24 10.3239 24.9482 8.63604 26.636C6.94821 28.3239 6 30.6131 6 33H3ZM15 19.5C10.0275 19.5 6 15.4725 6 10.5C6 5.5275 10.0275 1.5 15 1.5C19.9725 1.5 24 5.5275 24 10.5C24 15.4725 19.9725 19.5 15 19.5ZM15 16.5C18.315 16.5 21 13.815 21 10.5C21 7.185 18.315 4.5 15 4.5C11.685 4.5 9 7.185 9 10.5C9 13.815 11.685 16.5 15 16.5Z" fill="white"/>
</g>
<defs>
<clipPath id="clip0_18_10">
<rect width="36" height="36" fill="white"/>
</clipPath>
</defs>
</svg>
