<svg width="56" height="56" viewBox="0 0 56 56" fill="none" xmlns="http://www.w3.org/2000/svg">
<g clip-path="url(#clip0_30_41)">
<path d="M10.6937 40.4156C8.29033 37.863 7 35 7 30.359C7 22.1923 12.733 14.8727 21.07 11.2537L23.1537 14.469C15.372 18.6783 13.8507 24.1407 13.244 27.5846C14.497 26.936 16.1373 26.7097 17.745 26.859C21.9543 27.2486 25.2723 30.7043 25.2723 35C25.2723 37.1659 24.4119 39.2431 22.8804 40.7747C21.3488 42.3062 19.2716 43.1666 17.1057 43.1666C14.602 43.1666 12.208 42.0233 10.6937 40.4156ZM34.027 40.4156C31.6237 37.863 30.3333 35 30.3333 30.359C30.3333 22.1923 36.0663 14.8727 44.4033 11.2537L46.487 14.469C38.7053 18.6783 37.184 24.1407 36.5773 27.5846C37.8303 26.936 39.4707 26.7097 41.0783 26.859C45.2877 27.2486 48.6057 30.7043 48.6057 35C48.6057 37.1659 47.7453 39.2431 46.2137 40.7747C44.6822 42.3062 42.6049 43.1666 40.439 43.1666C37.9353 43.1666 35.5413 42.0233 34.027 40.4156Z" fill="#E0E3F1"/>
</g>
<defs>
<clipPath id="clip0_30_41">
<rect width="56" height="56" fill="white"/>
</clipPath>
</defs>
</svg>
