<svg width="36" height="36" viewBox="0 0 36 36" fill="none" xmlns="http://www.w3.org/2000/svg">
<g clip-path="url(#clip0_18_28)">
<path d="M18 16.4C20.1217 16.4 22.1566 17.2429 23.6569 18.7431C25.1571 20.2434 26 22.2783 26 24.4V34H22.8V24.4C22.8001 23.1757 22.3323 21.9976 21.4923 21.1068C20.6524 20.216 19.5038 19.6798 18.2816 19.608L18 19.6C16.7757 19.5999 15.5976 20.0677 14.7068 20.9077C13.816 21.7476 13.2798 22.8962 13.208 24.1184L13.2 24.4V34H10V24.4C10 22.2783 10.8429 20.2434 12.3431 18.7431C13.8434 17.2429 15.8783 16.4 18 16.4ZM7.6 21.2C8.0464 21.2 8.48 21.2528 8.896 21.3504C8.62244 22.1648 8.46043 23.0125 8.4144 23.8704L8.4 24.4V24.5376C8.21609 24.4718 8.02479 24.4288 7.8304 24.4096L7.6 24.4C7.00339 24.4 6.42817 24.6223 5.98653 25.0234C5.54488 25.4245 5.26847 25.9757 5.2112 26.5696L5.2 26.8V34H2V26.8C2 25.3148 2.59 23.8904 3.6402 22.8402C4.69041 21.79 6.11479 21.2 7.6 21.2ZM28.4 21.2C29.8852 21.2 31.3096 21.79 32.3598 22.8402C33.41 23.8904 34 25.3148 34 26.8V34H30.8V26.8C30.8 26.2034 30.5777 25.6282 30.1766 25.1865C29.7755 24.7449 29.2243 24.4685 28.6304 24.4112L28.4 24.4C28.12 24.4 27.8512 24.448 27.6 24.536V24.4C27.6 23.3344 27.4272 22.3104 27.1056 21.3536C27.52 21.2528 27.9536 21.2 28.4 21.2ZM7.6 11.6C8.66087 11.6 9.67828 12.0214 10.4284 12.7716C11.1786 13.5217 11.6 14.5391 11.6 15.6C11.6 16.6609 11.1786 17.6783 10.4284 18.4284C9.67828 19.1786 8.66087 19.6 7.6 19.6C6.53913 19.6 5.52172 19.1786 4.77157 18.4284C4.02143 17.6783 3.6 16.6609 3.6 15.6C3.6 14.5391 4.02143 13.5217 4.77157 12.7716C5.52172 12.0214 6.53913 11.6 7.6 11.6ZM28.4 11.6C29.4609 11.6 30.4783 12.0214 31.2284 12.7716C31.9786 13.5217 32.4 14.5391 32.4 15.6C32.4 16.6609 31.9786 17.6783 31.2284 18.4284C30.4783 19.1786 29.4609 19.6 28.4 19.6C27.3391 19.6 26.3217 19.1786 25.5716 18.4284C24.8214 17.6783 24.4 16.6609 24.4 15.6C24.4 14.5391 24.8214 13.5217 25.5716 12.7716C26.3217 12.0214 27.3391 11.6 28.4 11.6ZM7.6 14.8C7.38783 14.8 7.18434 14.8843 7.03431 15.0343C6.88429 15.1843 6.8 15.3878 6.8 15.6C6.8 15.8122 6.88429 16.0157 7.03431 16.1657C7.18434 16.3157 7.38783 16.4 7.6 16.4C7.81217 16.4 8.01566 16.3157 8.16569 16.1657C8.31571 16.0157 8.4 15.8122 8.4 15.6C8.4 15.3878 8.31571 15.1843 8.16569 15.0343C8.01566 14.8843 7.81217 14.8 7.6 14.8ZM28.4 14.8C28.1878 14.8 27.9843 14.8843 27.8343 15.0343C27.6843 15.1843 27.6 15.3878 27.6 15.6C27.6 15.8122 27.6843 16.0157 27.8343 16.1657C27.9843 16.3157 28.1878 16.4 28.4 16.4C28.6122 16.4 28.8157 16.3157 28.9657 16.1657C29.1157 16.0157 29.2 15.8122 29.2 15.6C29.2 15.3878 29.1157 15.1843 28.9657 15.0343C28.8157 14.8843 28.6122 14.8 28.4 14.8ZM18 2C19.6974 2 21.3253 2.67428 22.5255 3.87452C23.7257 5.07475 24.4 6.70261 24.4 8.4C24.4 10.0974 23.7257 11.7253 22.5255 12.9255C21.3253 14.1257 19.6974 14.8 18 14.8C16.3026 14.8 14.6747 14.1257 13.4745 12.9255C12.2743 11.7253 11.6 10.0974 11.6 8.4C11.6 6.70261 12.2743 5.07475 13.4745 3.87452C14.6747 2.67428 16.3026 2 18 2ZM18 5.2C17.1513 5.2 16.3374 5.53714 15.7373 6.13726C15.1371 6.73737 14.8 7.55131 14.8 8.4C14.8 9.24869 15.1371 10.0626 15.7373 10.6627C16.3374 11.2629 17.1513 11.6 18 11.6C18.8487 11.6 19.6626 11.2629 20.2627 10.6627C20.8629 10.0626 21.2 9.24869 21.2 8.4C21.2 7.55131 20.8629 6.73737 20.2627 6.13726C19.6626 5.53714 18.8487 5.2 18 5.2Z" fill="white"/>
</g>
<defs>
<clipPath id="clip0_18_28">
<rect width="36" height="36" fill="white"/>
</clipPath>
</defs>
</svg>
