<svg width="50" height="50" viewBox="0 0 50 50" fill="none" xmlns="http://www.w3.org/2000/svg">
<g clip-path="url(#clip0_23_13)">
<path d="M26.0706 2.72709L44.3435 13.6896C44.498 13.7821 44.6259 13.913 44.7147 14.0697C44.8035 14.2263 44.8501 14.4033 44.8501 14.5833C44.8501 14.7634 44.8035 14.9404 44.7147 15.097C44.6259 15.2537 44.498 15.3846 44.3435 15.4771L24.9998 27.0833L5.65603 15.4771C5.50154 15.3846 5.37367 15.2537 5.28488 15.097C5.19609 14.9404 5.14941 14.7634 5.14941 14.5833C5.14941 14.4033 5.19609 14.2263 5.28488 14.0697C5.37367 13.913 5.50154 13.7821 5.65603 13.6896L23.9269 2.72709C24.2509 2.53241 24.6218 2.42957 24.9998 2.42957C25.3778 2.42957 25.7487 2.53241 26.0727 2.72709H26.0706Z" fill="#4E6BFF"/>
<path opacity="0.5" d="M41.8394 21.875L44.3435 23.3771C44.498 23.4696 44.6259 23.6006 44.7147 23.7572C44.8035 23.9138 44.8501 24.0908 44.8501 24.2709C44.8501 24.4509 44.8035 24.6279 44.7147 24.7846C44.6259 24.9412 44.498 25.0721 44.3435 25.1646L24.9998 36.7709L5.65603 25.1646C5.50154 25.0721 5.37367 24.9412 5.28488 24.7846C5.19609 24.6279 5.14941 24.4509 5.14941 24.2709C5.14941 24.0908 5.19609 23.9138 5.28488 23.7572C5.37367 23.6006 5.50154 23.4696 5.65603 23.3771L8.1602 21.875L24.9998 31.9792L41.8394 21.875ZM41.8394 31.6667L44.3435 33.1688C44.498 33.2613 44.6259 33.3922 44.7147 33.5489C44.8035 33.7055 44.8501 33.8825 44.8501 34.0625C44.8501 34.2426 44.8035 34.4196 44.7147 34.5762C44.6259 34.7329 44.498 34.8638 44.3435 34.9563L26.0727 45.9188C25.7487 46.1135 25.3778 46.2163 24.9998 46.2163C24.6218 46.2163 24.2509 46.1135 23.9269 45.9188L5.65603 34.9563C5.50154 34.8638 5.37367 34.7329 5.28488 34.5762C5.19609 34.4196 5.14941 34.2426 5.14941 34.0625C5.14941 33.8825 5.19609 33.7055 5.28488 33.5489C5.37367 33.3922 5.50154 33.2613 5.65603 33.1688L8.1602 31.6667L24.9998 41.7709L41.8394 31.6667Z" fill="#4E6BFF"/>
</g>
<defs>
<clipPath id="clip0_23_13">
<rect width="50" height="50" fill="white"/>
</clipPath>
</defs>
</svg>
