<svg width="50" height="50" viewBox="0 0 50 50" fill="none" xmlns="http://www.w3.org/2000/svg">
<g clip-path="url(#clip0_23_54)">
<path d="M41.6667 45.8333H8.33333C7.7808 45.8333 7.25089 45.6138 6.86019 45.2231C6.46949 44.8324 6.25 44.3025 6.25 43.75V16.6667H43.75V43.75C43.75 44.3025 43.5305 44.8324 43.1398 45.2231C42.7491 45.6138 42.2192 45.8333 41.6667 45.8333ZM14.5833 22.9167V31.25H22.9167V22.9167H14.5833ZM14.5833 35.4167V39.5833H35.4167V35.4167H14.5833ZM27.0833 25V29.1667H35.4167V25H27.0833Z" fill="#4E6BFF"/>
<path opacity="0.5" d="M43.75 12.5H6.25V6.24996C6.25 5.69742 6.46949 5.16752 6.86019 4.77682C7.25089 4.38612 7.7808 4.16663 8.33333 4.16663H41.6667C42.2192 4.16663 42.7491 4.38612 43.1398 4.77682C43.5305 5.16752 43.75 5.69742 43.75 6.24996V12.5Z" fill="#4E6BFF"/>
</g>
<defs>
<clipPath id="clip0_23_54">
<rect width="50" height="50" fill="white"/>
</clipPath>
</defs>
</svg>
