<svg width="18" height="18" viewBox="0 0 18 18" fill="none" xmlns="http://www.w3.org/2000/svg">
<g clip-path="url(#clip0_33_180)">
<path d="M15 16.5H13.5V15C13.5 14.4033 13.2629 13.831 12.841 13.409C12.419 12.9871 11.8467 12.75 11.25 12.75H6.75C6.15326 12.75 5.58097 12.9871 5.15901 13.409C4.73705 13.831 4.5 14.4033 4.5 15V16.5H3V15C3 14.0054 3.39509 13.0516 4.09835 12.3484C4.80161 11.6451 5.75544 11.25 6.75 11.25H11.25C12.2446 11.25 13.1984 11.6451 13.9016 12.3484C14.6049 13.0516 15 14.0054 15 15V16.5ZM9 9.75C8.40905 9.75 7.82389 9.63361 7.27792 9.40746C6.73196 9.18131 6.23588 8.84984 5.81802 8.43198C5.40015 8.01412 5.06869 7.51804 4.84254 6.97208C4.6164 6.42611 4.5 5.84095 4.5 5.25C4.5 4.65905 4.6164 4.07389 4.84254 3.52793C5.06869 2.98196 5.40015 2.48588 5.81802 2.06802C6.23588 1.65016 6.73196 1.31869 7.27792 1.09254C7.82389 0.866396 8.40905 0.75 9 0.75C10.1935 0.75 11.3381 1.22411 12.182 2.06802C13.0259 2.91193 13.5 4.05653 13.5 5.25C13.5 6.44348 13.0259 7.58807 12.182 8.43198C11.3381 9.2759 10.1935 9.75 9 9.75ZM9 8.25C9.79565 8.25 10.5587 7.93393 11.1213 7.37132C11.6839 6.80871 12 6.04565 12 5.25C12 4.45435 11.6839 3.69129 11.1213 3.12868C10.5587 2.56607 9.79565 2.25 9 2.25C8.20435 2.25 7.44129 2.56607 6.87868 3.12868C6.31607 3.69129 6 4.45435 6 5.25C6 6.04565 6.31607 6.80871 6.87868 7.37132C7.44129 7.93393 8.20435 8.25 9 8.25Z" fill="#79808A"/>
</g>
<defs>
<clipPath id="clip0_33_180">
<rect width="18" height="18" fill="white"/>
</clipPath>
</defs>
</svg>
