<svg width="130" height="45" viewBox="0 0 130 45" fill="none" xmlns="http://www.w3.org/2000/svg">
<path d="M64.96 34.4531V31.2531H71.392C72.5227 31.2531 73.3973 30.9011 74.016 30.1971C74.6347 29.4931 74.944 28.6825 74.944 27.7651C74.944 27.1465 74.8053 26.5705 74.528 26.0371C74.2507 25.5038 73.8453 25.0771 73.312 24.7571C72.7787 24.4371 72.1387 24.2771 71.392 24.2771H64.96V21.0771H70.848C71.808 21.0771 72.576 20.8318 73.152 20.3411C73.728 19.8505 74.016 19.1251 74.016 18.1651C74.016 17.2051 73.728 16.4798 73.152 15.9891C72.576 15.4985 71.808 15.2531 70.848 15.2531H64.96V12.0531H70.944C72.4587 12.0531 73.7173 12.3305 74.72 12.8851C75.7227 13.4398 76.4693 14.1545 76.96 15.0291C77.4507 15.9038 77.696 16.8425 77.696 17.8451C77.696 19.0185 77.3653 20.0531 76.704 20.9491C76.064 21.8451 75.1147 22.5705 73.856 23.1251L74.144 21.9731C75.552 22.5491 76.6507 23.3598 77.44 24.4051C78.2293 25.4505 78.624 26.6771 78.624 28.0851C78.624 29.2371 78.336 30.2931 77.76 31.2531C77.2053 32.2131 76.3733 32.9918 75.264 33.5891C74.176 34.1651 72.832 34.4531 71.232 34.4531H64.96ZM62.432 34.4531V12.0531H66.112V34.4531H62.432ZM88.2903 34.7731C86.9036 34.7731 85.6449 34.4211 84.5143 33.7171C83.4049 33.0131 82.5196 32.0638 81.8583 30.8691C81.2183 29.6531 80.8983 28.2985 80.8983 26.8051C80.8983 25.2905 81.2183 23.9358 81.8583 22.7411C82.5196 21.5251 83.4049 20.5651 84.5143 19.8611C85.6449 19.1358 86.9036 18.7731 88.2903 18.7731C89.4636 18.7731 90.4983 19.0291 91.3943 19.5411C92.3116 20.0318 93.0369 20.7145 93.5703 21.5891C94.1036 22.4638 94.3703 23.4558 94.3703 24.5651V28.9811C94.3703 30.0905 94.1036 31.0825 93.5703 31.9571C93.0583 32.8318 92.3436 33.5251 91.4263 34.0371C90.5089 34.5278 89.4636 34.7731 88.2903 34.7731ZM88.8663 31.4451C90.1676 31.4451 91.2129 31.0078 92.0023 30.1331C92.8129 29.2585 93.2183 28.1385 93.2183 26.7731C93.2183 25.8558 93.0369 25.0451 92.6743 24.3411C92.3116 23.6371 91.7996 23.0931 91.1383 22.7091C90.4983 22.3038 89.7409 22.1011 88.8663 22.1011C88.0129 22.1011 87.2556 22.3038 86.5943 22.7091C85.9543 23.0931 85.4423 23.6371 85.0583 24.3411C84.6956 25.0451 84.5143 25.8558 84.5143 26.7731C84.5143 27.6905 84.6956 28.5011 85.0583 29.2051C85.4423 29.9091 85.9543 30.4638 86.5943 30.8691C87.2556 31.2531 88.0129 31.4451 88.8663 31.4451ZM92.9943 34.4531V30.3251L93.6023 26.5811L92.9943 22.8691V19.0931H96.5143V34.4531H92.9943ZM105.445 34.7731C104.591 34.7731 103.77 34.6665 102.981 34.4531C102.191 34.2185 101.466 33.8985 100.805 33.4931C100.143 33.0665 99.5674 32.5545 99.0768 31.9571L101.317 29.7171C101.85 30.3358 102.458 30.8051 103.141 31.1251C103.845 31.4238 104.634 31.5731 105.509 31.5731C106.298 31.5731 106.895 31.4558 107.301 31.2211C107.706 30.9865 107.909 30.6451 107.909 30.1971C107.909 29.7278 107.717 29.3651 107.333 29.1091C106.949 28.8531 106.447 28.6398 105.829 28.4691C105.231 28.2771 104.591 28.0851 103.909 27.8931C103.247 27.7011 102.607 27.4451 101.989 27.1251C101.391 26.7838 100.901 26.3251 100.517 25.7491C100.133 25.1731 99.9408 24.4265 99.9408 23.5091C99.9408 22.5278 100.165 21.6851 100.613 20.9811C101.082 20.2771 101.733 19.7331 102.565 19.3491C103.418 18.9651 104.431 18.7731 105.605 18.7731C106.842 18.7731 107.93 18.9971 108.869 19.4451C109.829 19.8718 110.629 20.5225 111.269 21.3971L109.029 23.6371C108.581 23.0825 108.069 22.6665 107.493 22.3891C106.917 22.1118 106.255 21.9731 105.509 21.9731C104.805 21.9731 104.261 22.0798 103.877 22.2931C103.493 22.5065 103.301 22.8158 103.301 23.2211C103.301 23.6478 103.493 23.9785 103.877 24.2131C104.261 24.4478 104.751 24.6505 105.349 24.8211C105.967 24.9918 106.607 25.1838 107.269 25.3971C107.951 25.5891 108.591 25.8665 109.189 26.2291C109.807 26.5705 110.309 27.0398 110.693 27.6371C111.077 28.2131 111.269 28.9705 111.269 29.9091C111.269 31.4025 110.746 32.5865 109.701 33.4611C108.655 34.3358 107.237 34.7731 105.445 34.7731ZM121.307 34.7731C119.771 34.7731 118.384 34.4318 117.147 33.7491C115.931 33.0451 114.96 32.0851 114.235 30.8691C113.531 29.6531 113.179 28.2878 113.179 26.7731C113.179 25.2585 113.531 23.9038 114.235 22.7091C114.939 21.4931 115.888 20.5331 117.083 19.8291C118.299 19.1251 119.643 18.7731 121.115 18.7731C122.544 18.7731 123.803 19.1038 124.891 19.7651C126 20.4265 126.864 21.3331 127.483 22.4851C128.123 23.6371 128.443 24.9491 128.443 26.4211C128.443 26.6771 128.421 26.9438 128.379 27.2211C128.357 27.4771 128.315 27.7651 128.251 28.0851H115.643V25.2051H126.427L125.115 26.3571C125.072 25.4185 124.891 24.6291 124.571 23.9891C124.251 23.3491 123.792 22.8585 123.195 22.5171C122.619 22.1758 121.904 22.0051 121.051 22.0051C120.155 22.0051 119.376 22.1971 118.715 22.5811C118.053 22.9651 117.541 23.5091 117.179 24.2131C116.816 24.8958 116.635 25.7171 116.635 26.6771C116.635 27.6371 116.827 28.4798 117.211 29.2051C117.595 29.9305 118.139 30.4958 118.843 30.9011C119.547 31.2851 120.357 31.4771 121.275 31.4771C122.064 31.4771 122.789 31.3385 123.451 31.0611C124.133 30.7838 124.709 30.3785 125.179 29.8451L127.419 32.1171C126.672 32.9918 125.765 33.6531 124.699 34.1011C123.632 34.5491 122.501 34.7731 121.307 34.7731Z" fill="white"/>
<rect y="0.453125" width="44" height="44" rx="10" fill="#4E6BFF"/>
<path d="M22.625 20.0781H30.1111L20.4861 33.9809V24.3559H13L22.625 10.4531V20.0781Z" fill="white"/>
</svg>
