<svg width="130" height="44" viewBox="0 0 130 44" fill="none" xmlns="http://www.w3.org/2000/svg">
<path d="M64.96 34V30.8H71.392C72.5227 30.8 73.3973 30.448 74.016 29.744C74.6347 29.04 74.944 28.2293 74.944 27.312C74.944 26.6933 74.8053 26.1173 74.528 25.584C74.2507 25.0507 73.8453 24.624 73.312 24.304C72.7787 23.984 72.1387 23.824 71.392 23.824H64.96V20.624H70.848C71.808 20.624 72.576 20.3787 73.152 19.888C73.728 19.3973 74.016 18.672 74.016 17.712C74.016 16.752 73.728 16.0267 73.152 15.536C72.576 15.0453 71.808 14.8 70.848 14.8H64.96V11.6H70.944C72.4587 11.6 73.7173 11.8773 74.72 12.432C75.7227 12.9867 76.4693 13.7013 76.96 14.576C77.4507 15.4507 77.696 16.3893 77.696 17.392C77.696 18.5653 77.3653 19.6 76.704 20.496C76.064 21.392 75.1147 22.1173 73.856 22.672L74.144 21.52C75.552 22.096 76.6507 22.9067 77.44 23.952C78.2293 24.9973 78.624 26.224 78.624 27.632C78.624 28.784 78.336 29.84 77.76 30.8C77.2053 31.76 76.3733 32.5387 75.264 33.136C74.176 33.712 72.832 34 71.232 34H64.96ZM62.432 34V11.6H66.112V34H62.432ZM88.2903 34.32C86.9036 34.32 85.6449 33.968 84.5143 33.264C83.4049 32.56 82.5196 31.6107 81.8583 30.416C81.2183 29.2 80.8983 27.8453 80.8983 26.352C80.8983 24.8373 81.2183 23.4827 81.8583 22.288C82.5196 21.072 83.4049 20.112 84.5143 19.408C85.6449 18.6827 86.9036 18.32 88.2903 18.32C89.4636 18.32 90.4983 18.576 91.3943 19.088C92.3116 19.5787 93.0369 20.2613 93.5703 21.136C94.1036 22.0107 94.3703 23.0027 94.3703 24.112V28.528C94.3703 29.6373 94.1036 30.6293 93.5703 31.504C93.0583 32.3787 92.3436 33.072 91.4263 33.584C90.5089 34.0747 89.4636 34.32 88.2903 34.32ZM88.8663 30.992C90.1676 30.992 91.2129 30.5547 92.0023 29.68C92.8129 28.8053 93.2183 27.6853 93.2183 26.32C93.2183 25.4027 93.0369 24.592 92.6743 23.888C92.3116 23.184 91.7996 22.64 91.1383 22.256C90.4983 21.8507 89.7409 21.648 88.8663 21.648C88.0129 21.648 87.2556 21.8507 86.5943 22.256C85.9543 22.64 85.4423 23.184 85.0583 23.888C84.6956 24.592 84.5143 25.4027 84.5143 26.32C84.5143 27.2373 84.6956 28.048 85.0583 28.752C85.4423 29.456 85.9543 30.0107 86.5943 30.416C87.2556 30.8 88.0129 30.992 88.8663 30.992ZM92.9943 34V29.872L93.6023 26.128L92.9943 22.416V18.64H96.5143V34H92.9943ZM105.445 34.32C104.591 34.32 103.77 34.2133 102.981 34C102.191 33.7653 101.466 33.4453 100.805 33.04C100.143 32.6133 99.5674 32.1013 99.0768 31.504L101.317 29.264C101.85 29.8827 102.458 30.352 103.141 30.672C103.845 30.9707 104.634 31.12 105.509 31.12C106.298 31.12 106.895 31.0027 107.301 30.768C107.706 30.5333 107.909 30.192 107.909 29.744C107.909 29.2747 107.717 28.912 107.333 28.656C106.949 28.4 106.447 28.1867 105.829 28.016C105.231 27.824 104.591 27.632 103.909 27.44C103.247 27.248 102.607 26.992 101.989 26.672C101.391 26.3307 100.901 25.872 100.517 25.296C100.133 24.72 99.9408 23.9733 99.9408 23.056C99.9408 22.0747 100.165 21.232 100.613 20.528C101.082 19.824 101.733 19.28 102.565 18.896C103.418 18.512 104.431 18.32 105.605 18.32C106.842 18.32 107.93 18.544 108.869 18.992C109.829 19.4187 110.629 20.0693 111.269 20.944L109.029 23.184C108.581 22.6293 108.069 22.2133 107.493 21.936C106.917 21.6587 106.255 21.52 105.509 21.52C104.805 21.52 104.261 21.6267 103.877 21.84C103.493 22.0533 103.301 22.3627 103.301 22.768C103.301 23.1947 103.493 23.5253 103.877 23.76C104.261 23.9947 104.751 24.1973 105.349 24.368C105.967 24.5387 106.607 24.7307 107.269 24.944C107.951 25.136 108.591 25.4133 109.189 25.776C109.807 26.1173 110.309 26.5867 110.693 27.184C111.077 27.76 111.269 28.5173 111.269 29.456C111.269 30.9493 110.746 32.1333 109.701 33.008C108.655 33.8827 107.237 34.32 105.445 34.32ZM121.307 34.32C119.771 34.32 118.384 33.9787 117.147 33.296C115.931 32.592 114.96 31.632 114.235 30.416C113.531 29.2 113.179 27.8347 113.179 26.32C113.179 24.8053 113.531 23.4507 114.235 22.256C114.939 21.04 115.888 20.08 117.083 19.376C118.299 18.672 119.643 18.32 121.115 18.32C122.544 18.32 123.803 18.6507 124.891 19.312C126 19.9733 126.864 20.88 127.483 22.032C128.123 23.184 128.443 24.496 128.443 25.968C128.443 26.224 128.421 26.4907 128.379 26.768C128.357 27.024 128.315 27.312 128.251 27.632H115.643V24.752H126.427L125.115 25.904C125.072 24.9653 124.891 24.176 124.571 23.536C124.251 22.896 123.792 22.4053 123.195 22.064C122.619 21.7227 121.904 21.552 121.051 21.552C120.155 21.552 119.376 21.744 118.715 22.128C118.053 22.512 117.541 23.056 117.179 23.76C116.816 24.4427 116.635 25.264 116.635 26.224C116.635 27.184 116.827 28.0267 117.211 28.752C117.595 29.4773 118.139 30.0427 118.843 30.448C119.547 30.832 120.357 31.024 121.275 31.024C122.064 31.024 122.789 30.8853 123.451 30.608C124.133 30.3307 124.709 29.9253 125.179 29.392L127.419 31.664C126.672 32.5387 125.765 33.2 124.699 33.648C123.632 34.096 122.501 34.32 121.307 34.32Z" fill="#181C31"/>
<rect width="44" height="44" rx="10" fill="#4E6BFF"/>
<path d="M22.625 19.625H30.1111L20.4861 33.5278V23.9028H13L22.625 10V19.625Z" fill="white"/>
</svg>
