<svg width="85" height="46" viewBox="0 0 85 46" fill="none" xmlns="http://www.w3.org/2000/svg">
<path fill-rule="evenodd" clip-rule="evenodd" d="M72.3816 2.39296C69.6701 2.06242 67.0688 3.16277 64.3819 5.46577C59.9602 9.25571 52.2878 11.1411 45.3723 5.48293C42.4097 3.059 39.8275 2.67579 37.694 3.03136C35.4851 3.39951 33.6272 4.57716 32.1668 5.55074C29.8539 7.09272 27.3067 8.71308 24.3732 9.09333C21.3452 9.48585 18.1119 8.54561 14.4286 5.47623C11.3446 2.90625 8.70571 2.41192 6.67863 2.72379C4.60456 3.04288 2.98853 4.23443 2.05857 5.33348C1.64211 5.82566 0.905519 5.88704 0.413345 5.47058C-0.0788304 5.05413 -0.140213 4.31754 0.276243 3.82536C1.48647 2.39509 3.5772 0.838716 6.3236 0.416181C9.11699 -0.0135824 12.4122 0.756749 15.9233 3.68262C19.2443 6.4501 21.8479 7.06639 24.0731 6.77795C26.3928 6.47725 28.5152 5.17916 30.8717 3.60811L31.5193 4.57942L30.8717 3.60811C32.3298 2.63605 34.5577 1.1871 37.3102 0.728369C40.1381 0.257061 43.3927 0.84667 46.8507 3.67592C52.7127 8.47206 59.1125 6.90726 62.8625 3.69307C65.8163 1.16131 69.0519 -0.364991 72.6641 0.0753546C76.2403 0.5113 79.8876 2.84169 83.7662 7.31693C84.1884 7.80414 84.1357 8.54141 83.6485 8.96366C83.1613 9.38591 82.424 9.33325 82.0018 8.84603C78.2924 4.56591 75.1292 2.72789 72.3816 2.39296Z" fill="#F36A8D"/>
<path fill-rule="evenodd" clip-rule="evenodd" d="M72.3816 14.6417C69.6701 14.3112 67.0688 15.4116 64.3819 17.7145C59.9602 21.5045 52.2878 23.3899 45.3723 17.7317C42.4097 15.3078 39.8275 14.9246 37.694 15.2801C35.4851 15.6483 33.6272 16.8259 32.1668 17.7995C29.8539 19.3415 27.3067 20.9619 24.3732 21.3421C21.3452 21.7346 18.1119 20.7944 14.4286 17.725C11.3446 15.155 8.70571 14.6607 6.67863 14.9726C4.60456 15.2917 2.98853 16.4832 2.05857 17.5823C1.64211 18.0744 0.905519 18.1358 0.413345 17.7194C-0.0788304 17.3029 -0.140213 16.5663 0.276243 16.0741C1.48647 14.6439 3.5772 13.0875 6.3236 12.665C9.11699 12.2352 12.4122 13.0055 15.9233 15.9314C19.2443 18.6989 21.8479 19.3152 24.0731 19.0267C26.3928 18.726 28.5152 17.4279 30.8717 15.8569L31.5193 16.8282L30.8717 15.8569C32.3298 14.8848 34.5577 13.4359 37.3102 12.9771C40.1381 12.5058 43.3927 13.0954 46.8507 15.9247C52.7127 20.7208 59.1125 19.156 62.8625 15.9419C65.8163 13.4101 69.0519 11.8838 72.6641 12.3241C76.2403 12.7601 79.8876 15.0905 83.7662 19.5657C84.1884 20.0529 84.1357 20.7902 83.6485 21.2124C83.1613 21.6347 82.424 21.582 82.0018 21.0948C78.2924 16.8147 75.1292 14.9767 72.3816 14.6417Z" fill="#F36A8D"/>
<path fill-rule="evenodd" clip-rule="evenodd" d="M72.3816 26.8905C69.6701 26.56 67.0688 27.6603 64.3819 29.9633C59.9602 33.7533 52.2878 35.6386 45.3723 29.9805C42.4097 27.5566 39.8275 27.1733 37.694 27.5289C35.4851 27.8971 33.6272 29.0747 32.1668 30.0483C29.8539 31.5903 27.3067 33.2106 24.3732 33.5909C21.3452 33.9834 18.1119 33.0432 14.4286 29.9738C11.3446 27.4038 8.70571 26.9095 6.67863 27.2213C4.60456 27.5404 2.98853 28.732 2.05857 29.831C1.64211 30.3232 0.905519 30.3846 0.413345 29.9681C-0.0788304 29.5517 -0.140213 28.8151 0.276243 28.3229C1.48647 26.8927 3.5772 25.3363 6.3236 24.9137C9.11699 24.484 12.4122 25.2543 15.9233 28.1802C19.2443 30.9477 21.8479 31.5639 24.0731 31.2755C26.3928 30.9748 28.5152 29.6767 30.8717 28.1057L31.5193 29.077L30.8717 28.1057C32.3298 27.1336 34.5577 25.6847 37.3102 25.2259C40.1381 24.7546 43.3927 25.3442 46.8507 28.1735C52.7127 32.9696 59.1125 31.4048 62.8625 28.1906C65.8163 25.6589 69.0519 24.1326 72.6641 24.5729C76.2403 25.0089 79.8876 27.3393 83.7662 31.8145C84.1884 32.3017 84.1357 33.039 83.6485 33.4612C83.1613 33.8835 82.424 33.8308 82.0018 33.3436C78.2924 29.0635 75.1292 27.2255 72.3816 26.8905Z" fill="#F36A8D"/>
<path fill-rule="evenodd" clip-rule="evenodd" d="M72.3816 39.1393C69.6701 38.8088 67.0688 39.9091 64.3819 42.2121C59.9602 46.0021 52.2878 47.8874 45.3723 42.2293C42.4097 39.8053 39.8275 39.4221 37.694 39.7777C35.4851 40.1458 33.6272 41.3235 32.1668 42.2971C29.8539 43.8391 27.3067 45.4594 24.3732 45.8397C21.3452 46.2322 18.1119 45.292 14.4286 42.2226C11.3446 39.6526 8.70571 39.1583 6.67863 39.4701C4.60456 39.7892 2.98853 40.9808 2.05857 42.0798C1.64211 42.572 0.905519 42.6334 0.413345 42.2169C-0.0788304 41.8005 -0.140213 41.0639 0.276243 40.5717C1.48647 39.1414 3.5772 37.5851 6.3236 37.1625C9.11699 36.7328 12.4122 37.5031 15.9233 40.429C19.2443 43.1964 21.8479 43.8127 24.0731 43.5243C26.3928 43.2236 28.5152 41.9255 30.8717 40.3544L31.5193 41.3258L30.8717 40.3544C32.3298 39.3824 34.5577 37.9334 37.3102 37.4747C40.1381 37.0034 43.3927 37.593 46.8507 40.4223C52.7127 45.2184 59.1125 43.6536 62.8625 40.4394C65.8163 37.9076 69.0519 36.3813 72.6641 36.8217C76.2403 37.2576 79.8876 39.588 83.7662 44.0633C84.1884 44.5505 84.1357 45.2877 83.6485 45.71C83.1613 46.1322 82.424 46.0796 82.0018 45.5924C78.2924 41.3123 75.1292 39.4742 72.3816 39.1393Z" fill="#F36A8D"/>
</svg>
