<svg width="36" height="66" viewBox="0 0 36 66" fill="none" xmlns="http://www.w3.org/2000/svg">
<path fill-rule="evenodd" clip-rule="evenodd" d="M1.85136 9.02848C1.59563 11.1263 2.44695 13.1388 4.22871 15.2176C7.16088 18.6385 8.61953 24.5744 4.24198 29.9248C2.36666 32.2169 2.07018 34.2147 2.34528 35.8653C2.63011 37.5743 3.54121 39.0117 4.29445 40.1415C5.48744 41.931 6.74106 43.9016 7.03526 46.1712C7.33893 48.5139 6.6115 51.0154 4.2368 53.8651C2.24848 56.2511 1.86604 58.2927 2.10732 59.861C2.35419 61.4657 3.27606 62.7159 4.12636 63.4354C4.50715 63.7576 4.55464 64.3275 4.23244 64.7083C3.91024 65.0891 3.34036 65.1366 2.95958 64.8144C1.85302 63.878 0.648891 62.2605 0.321988 60.1357C-0.0105086 57.9745 0.585475 55.4251 2.84913 52.7087C4.99026 50.1393 5.46707 48.125 5.24391 46.4034C5.01127 44.6087 4.00697 42.9667 2.79149 41.1435L3.54297 40.6425L2.79149 41.1435C2.03943 40.0154 0.918426 38.2917 0.563518 36.1622C0.198879 33.9744 0.655043 31.4563 2.84395 28.781C6.55459 24.2457 5.34395 19.2944 2.85722 16.3931C0.898468 14.1079 -0.282385 11.6046 0.0582973 8.80989C0.395576 6.04311 2.19853 3.22128 5.6609 0.220566C6.03784 -0.106118 6.60824 -0.0653766 6.93493 0.311569C7.26161 0.688514 7.22087 1.25891 6.84392 1.5856C3.53252 4.45548 2.11049 6.90277 1.85136 9.02848Z" fill="#F36A8D"/>
<path fill-rule="evenodd" clip-rule="evenodd" d="M11.3279 9.02848C11.0722 11.1263 11.9235 13.1388 13.7053 15.2176C16.6374 18.6385 18.0961 24.5744 13.7185 29.9248C11.8432 32.2169 11.5467 34.2147 11.8218 35.8653C12.1067 37.5743 13.0178 39.0117 13.771 40.1415C14.964 41.931 16.2176 43.9016 16.5118 46.1712C16.8155 48.5139 16.0881 51.0154 13.7134 53.8651C11.725 56.2511 11.3426 58.2927 11.5839 59.861C11.8308 61.4657 12.7526 62.7159 13.6029 63.4354C13.9837 63.7576 14.0312 64.3275 13.709 64.7083C13.3868 65.0891 12.8169 65.1366 12.4361 64.8144C11.3296 63.878 10.1255 62.2605 9.79855 60.1357C9.46605 57.9745 10.062 55.4251 12.3257 52.7087C14.4668 50.1393 14.9436 48.125 14.7205 46.4034C14.4878 44.6087 13.4835 42.9667 12.2681 41.1435L13.0195 40.6425L12.2681 41.1435C11.516 40.0154 10.395 38.2917 10.0401 36.1622C9.67544 33.9744 10.1316 31.4563 12.3205 28.781C16.0312 24.2457 14.8205 19.2944 12.3338 16.3931C10.375 14.1079 9.19418 11.6046 9.53486 8.80989C9.87214 6.04311 11.6751 3.22128 15.1375 0.220566C15.5144 -0.106118 16.0848 -0.0653766 16.4115 0.311569C16.7382 0.688514 16.6974 1.25891 16.3205 1.5856C13.0091 4.45548 11.5871 6.90277 11.3279 9.02848Z" fill="#F36A8D"/>
<path fill-rule="evenodd" clip-rule="evenodd" d="M20.8045 9.02848C20.5488 11.1263 21.4001 13.1388 23.1818 15.2176C26.114 18.6385 27.5727 24.5744 23.1951 29.9248C21.3198 32.2169 21.0233 34.2147 21.2984 35.8653C21.5832 37.5743 22.4943 39.0117 23.2476 40.1415C24.4406 41.931 25.6942 43.9016 25.9884 46.1712C26.2921 48.5139 25.5646 51.0154 23.1899 53.8651C21.2016 56.2511 20.8192 58.2927 21.0604 59.861C21.3073 61.4657 22.2292 62.7159 23.0795 63.4354C23.4603 63.7576 23.5078 64.3275 23.1856 64.7083C22.8634 65.0891 22.2935 65.1366 21.9127 64.8144C20.8061 63.878 19.602 62.2605 19.2751 60.1357C18.9426 57.9745 19.5386 55.4251 21.8023 52.7087C23.9434 50.1393 24.4202 48.125 24.197 46.4034C23.9644 44.6087 22.9601 42.9667 21.7446 41.1435L22.4961 40.6425L21.7446 41.1435C20.9926 40.0154 19.8716 38.2917 19.5166 36.1622C19.152 33.9744 19.6082 31.4563 21.7971 28.781C25.5077 24.2457 24.2971 19.2944 21.8103 16.3931C19.8516 14.1079 18.6707 11.6046 19.0114 8.80989C19.3487 6.04311 21.1517 3.22128 24.614 0.220566C24.991 -0.106118 25.5614 -0.0653766 25.8881 0.311569C26.2147 0.688514 26.174 1.25891 25.797 1.5856C22.4856 4.45548 21.0636 6.90277 20.8045 9.02848Z" fill="#F36A8D"/>
<path fill-rule="evenodd" clip-rule="evenodd" d="M30.281 9.02848C30.0253 11.1263 30.8766 13.1388 32.6584 15.2176C35.5906 18.6385 37.0492 24.5744 32.6717 29.9248C30.7963 32.2169 30.4999 34.2147 30.775 35.8653C31.0598 37.5743 31.9709 39.0117 32.7241 40.1415C33.9171 41.931 35.1707 43.9016 35.4649 46.1712C35.7686 48.5139 35.0412 51.0154 32.6665 53.8651C30.6782 56.2511 30.2957 58.2927 30.537 59.861C30.7839 61.4657 31.7057 62.7159 32.5561 63.4354C32.9368 63.7576 32.9843 64.3275 32.6621 64.7083C32.3399 65.0891 31.77 65.1366 31.3893 64.8144C30.2827 63.878 29.0786 62.2605 28.7517 60.1357C28.4192 57.9745 29.0152 55.4251 31.2788 52.7087C33.4199 50.1393 33.8968 48.125 33.6736 46.4034C33.441 44.6087 32.4367 42.9667 31.2212 41.1435L31.9727 40.6425L31.2212 41.1435C30.4691 40.0154 29.3481 38.2917 28.9932 36.1622C28.6286 33.9744 29.0847 31.4563 31.2736 28.781C34.9843 24.2457 33.7736 19.2944 31.2869 16.3931C29.3282 14.1079 28.1473 11.6046 28.488 8.80989C28.8253 6.04311 30.6282 3.22128 34.0906 0.220566C34.4675 -0.106118 35.0379 -0.0653766 35.3646 0.311569C35.6913 0.688514 35.6506 1.25891 35.2736 1.5856C31.9622 4.45548 30.5402 6.90277 30.281 9.02848Z" fill="#F36A8D"/>
</svg>
