<svg width="1027" height="492" viewBox="0 0 1027 492" fill="none" xmlns="http://www.w3.org/2000/svg">
<g opacity="0.2">
<path fill-rule="evenodd" clip-rule="evenodd" d="M976.839 -1149.15C966.304 -1109.2 943.939 -1066.3 918.07 -1022.12C891.803 -978.235 863.053 -933.515 822.72 -911.56C782.438 -889.31 724.252 -900.297 658.977 -930.454C594.265 -959.423 521.166 -1010.44 458.772 -1057.57C396.742 -1104.25 347.054 -1143.29 337.168 -1137.31C308.516 -1125.17 323.637 -1050.68 439.967 -921.235C485.763 -871.004 535.822 -824.832 589.585 -783.239C639.149 -744.877 686.613 -714.828 727.502 -691.677C768.288 -668.35 805.884 -651.718 819.879 -634.866C835.116 -616.499 822.299 -601.144 803.583 -590.487C782.843 -578.452 749.93 -570.584 707.885 -566.929C666.029 -563.142 614.897 -563.694 561.107 -565.383C486.589 -567.479 402.791 -572.583 325.792 -569.666C249.037 -566.782 177.767 -554.729 137.972 -526.755C97.9605 -499.13 86.8487 -456.661 99.0092 -408.651C116.788 -337.004 177.655 -258.138 241.866 -188.965C279.623 -148.274 341.869 -79.8729 432.848 -49.1682C518.837 -20.5914 525.187 -53.4597 534.012 -68.7897C542.249 -85.7074 560.609 -103.464 595.391 -86.5536C623.51 -72.8526 641.108 -46.4141 647.926 -18.0069C654.952 10.3068 650.389 41.1881 671.878 59.7632C690.689 76.0673 727.374 85.5608 762.889 99.4337C798.45 113.47 834.484 130.749 867.167 153.187C900.07 175.414 930.31 203.129 962.946 228.299C995.52 253.237 1031.5 274.016 1069.22 283.225C1120.84 296.182 1176.35 300.863 1250.12 252.784C1323.76 204.922 1404.62 115.865 1466.84 26.901C1529.99 -62.6061 1575.87 -151.76 1607.84 -224.671C1640.41 -298.112 1660.41 -363.574 1678.13 -398.504C1701.3 -444.611 1728.79 -476.846 1720.49 -505.66C1720.41 -505.563 1721.21 -526.134 1719.75 -559.528C1718.24 -592.757 1713.73 -644.265 1698.27 -706.552C1682.91 -768.885 1660.5 -829.403 1636.38 -883.143C1612.11 -937.044 1587.2 -985.214 1565.02 -1024.34C1542.58 -1063.4 1517.93 -1093.92 1491.39 -1114.06C1464.93 -1134.19 1434.89 -1143.6 1405.73 -1136.59C1362.49 -1126.05 1324.21 -1126.85 1282.61 -1134.05C1241.01 -1141.06 1198.01 -1155.54 1158.99 -1173.57C1119.75 -1190.98 1084.74 -1212.42 1052.43 -1215.8C1020.56 -1219.51 990.25 -1199.94 976.835 -1149.15L976.839 -1149.15Z" stroke="url(#paint0_linear_33_255)" stroke-width="1.5"/>
<path fill-rule="evenodd" clip-rule="evenodd" d="M437.077 -54.3663C507.194 -30.1473 520.834 -48.6355 529.771 -64.305C531.419 -67.5378 532.859 -70.7412 534.198 -73.4471C542.236 -90.325 562.309 -108.326 598.33 -91.6752C627.465 -78.2807 646.639 -52.4127 655.692 -24.7224C664.935 2.87141 663.377 32.9359 686.712 50.9127C707.176 66.7327 743.344 77.3336 778.985 91.4943C814.727 105.764 851.025 123.059 884.369 144.956C917.91 166.666 949.306 193.253 983.223 216.386C1017.04 239.384 1054.43 257.147 1092.27 263.85C1118.4 268.511 1146.94 267.285 1176.54 260.899C1206.54 254.432 1235.62 246.303 1271.69 221.69C1314.26 192.595 1359.43 149.968 1400.92 102.134C1442.51 54.2829 1480.38 1.48344 1512.16 -49.7333C1527.46 -74.4092 1541.96 -99.5737 1555.63 -125.187C1587.14 -184.105 1610.67 -237.961 1629.22 -283.772C1647.78 -329.625 1661.63 -367.616 1674.53 -397.809C1676.84 -403.255 1679.12 -408.393 1681.4 -413.422C1684.19 -417.666 1686.92 -421.929 1689.56 -426.098C1705.22 -450.917 1718.69 -470.887 1723.41 -488.112C1725.72 -496.555 1725.82 -504.79 1723.13 -513.275C1723.06 -513.316 1723.18 -518.8 1723.01 -528.496C1722.65 -545.054 1721.9 -573.026 1717.07 -612.484C1715.4 -625.757 1713.44 -638.993 1711.2 -652.183C1708.84 -666.394 1705.43 -683.244 1701.79 -699.031C1694.78 -729.427 1686.36 -759.482 1676.56 -789.097C1668.69 -813.004 1660.16 -836.282 1651.63 -858.457C1647.87 -868.32 1643.95 -878.121 1639.87 -887.858C1635.36 -898.54 1630.68 -909.147 1625.81 -919.673C1614.77 -943.703 1603.54 -966.222 1592.59 -987.318C1581.61 -1008.36 1571.63 -1027.59 1560.8 -1044.81C1539.39 -1078.64 1516.54 -1105.34 1491.48 -1122.73C1466.49 -1140.08 1438.05 -1148.11 1409.82 -1141.75C1372.02 -1133.19 1338.57 -1132.67 1303.45 -1137.17C1268.39 -1141.62 1232.4 -1151.42 1198.05 -1165.17C1150.63 -1183.19 1108.29 -1212.05 1070.06 -1223.58C1032.41 -1235.19 993.652 -1220.62 975.369 -1161.29C963.156 -1121.23 939.573 -1078.11 912.907 -1033.76C885.826 -989.67 856.717 -944.841 816.713 -922.601C776.751 -900.068 719.553 -910.975 655.357 -940.937C591.714 -969.762 520.067 -1020.01 458.818 -1066.52C397.919 -1112.55 348.96 -1151.39 338.698 -1146.18C309.095 -1136.14 325.145 -1060.45 439.977 -930.844C488.079 -877.211 538.921 -830.73 587.643 -792.28C636.503 -753.725 683.255 -723.318 723.906 -699.573C764.473 -675.603 802.118 -658.393 816.745 -641.039C823.451 -633.062 825.444 -625.751 824.265 -619.084C822.665 -609.705 814.315 -601.656 804.273 -595.188C785.056 -582.649 753.657 -574.222 713.012 -570.037C672.546 -565.721 622.667 -565.749 569.73 -567.203C507.169 -568.708 437.453 -572.797 370.136 -572.632C302.973 -572.458 238.503 -567.705 188.759 -552.289C138.905 -537.039 108.156 -510.444 98.6971 -475.601C93.7921 -457.845 94.0647 -438.041 98.6961 -417.161C107.159 -378.836 128.405 -337.51 157.258 -296.878C181.949 -262.085 212.031 -227.816 243.003 -195.226C256.838 -180.699 273.725 -162.578 293.574 -144.086C330.141 -109.964 379.358 -74.556 437.077 -54.3663V-54.3663Z" stroke="url(#paint1_linear_33_255)" stroke-width="1.5"/>
<path fill-rule="evenodd" clip-rule="evenodd" d="M440.649 -59.5245C509.139 -35.1387 521.254 -53.25 529.955 -68.9407C531.539 -72.12 533.052 -75.4215 534.366 -78.0948C542.322 -94.9222 564.24 -113.072 601.459 -96.7702C631.567 -83.5884 652.336 -58.3983 663.626 -31.4427C675.091 -4.54936 676.58 24.5584 701.681 41.9873C723.768 57.2264 759.193 69.1817 795.062 83.3531C831.087 97.6336 867.786 114.785 901.941 135.964C936.288 156.928 968.949 182.11 1004.13 203.15C1039.2 224.062 1077.53 239.152 1115.52 243.407C1142.32 246.512 1171.67 242.002 1201.35 233.176C1231.6 224.206 1261.16 213.282 1297.06 187.104C1338.87 156.603 1382.43 113.907 1422 66.6057C1461.68 19.2848 1497.33 -32.3448 1526.87 -82.0357C1541.08 -105.982 1554.51 -130.383 1567.13 -155.201C1596.17 -212.063 1617.69 -263.52 1634.84 -306.826C1652.02 -350.156 1665.07 -385.543 1677.65 -413.162C1679.91 -418.138 1682.15 -422.834 1684.39 -427.474C1687.15 -431.254 1689.87 -435.157 1692.48 -438.966C1708.01 -461.501 1721.79 -479.635 1726.41 -496.014C1728.67 -504.06 1728.63 -512.086 1725.78 -520.502C1725.62 -520.657 1725.72 -525.896 1725.38 -535.424C1724.71 -551.845 1723.36 -579.395 1717.73 -619.466C1715.82 -633.018 1713.59 -646.523 1711.05 -659.972C1708.09 -675.497 1705.13 -691.16 1701.57 -706.752C1694.77 -736.734 1686.33 -766.779 1677.02 -795.763C1669.44 -819.41 1661.37 -842.464 1653.76 -864.336C1650.43 -874.084 1646.89 -883.761 1643.15 -893.359C1638.94 -904.015 1634.5 -914.579 1629.84 -925.044C1619.71 -947.807 1609 -970.305 1597.7 -992.514C1587 -1013.53 1576.87 -1032.73 1566.06 -1049.88C1544.81 -1083.42 1522.32 -1110 1497.24 -1127.46C1472.23 -1144.86 1443.47 -1152.97 1414.18 -1146.92C1375.05 -1138.72 1340.66 -1138.41 1305.03 -1143.22C1269.47 -1148.05 1233.39 -1158.25 1199.24 -1172.7C1152.22 -1191.58 1110.68 -1221.73 1072.51 -1234.18C1034.92 -1246.67 995 -1233.02 974.244 -1173.64C960.335 -1133.55 935.489 -1090.23 907.982 -1045.7C880.047 -1001.4 850.519 -956.426 810.799 -933.912C771.123 -911.11 714.899 -921.798 651.74 -951.53C589.115 -980.179 518.886 -1029.68 458.735 -1075.57C398.93 -1121.05 350.654 -1159.58 339.967 -1155.23C309.307 -1147.48 325.592 -1071.28 439.277 -940.973C483.833 -890.565 532.558 -844.002 584.934 -801.779C627.618 -767.429 672.612 -736.054 719.599 -707.874C759.933 -683.287 797.755 -665.22 813.066 -647.448C820.167 -639.146 822.516 -631.601 821.941 -624.814C821.15 -615.16 813.739 -606.801 804.495 -600.047C786.832 -587.021 756.969 -577.999 717.757 -573.27C678.721 -568.437 630.144 -567.906 578.121 -569.058C516.801 -570.234 447.789 -574.302 380.536 -574.631C313.451 -574.913 248.321 -571.047 197.216 -556.826C146.018 -542.759 112.448 -517.42 101.203 -483.264C95.385 -465.874 94.8401 -446.29 98.8266 -425.51C106.101 -387.385 126.772 -345.807 155.837 -304.689C180.689 -269.436 211.603 -234.651 243.725 -201.582C258.183 -186.765 275.825 -168.434 296.366 -149.743C334.282 -115.284 384.248 -79.7952 440.649 -59.5245V-59.5245Z" stroke="url(#paint2_linear_33_255)" stroke-width="1.5"/>
<path fill-rule="evenodd" clip-rule="evenodd" d="M443.581 -64.7586C510.636 -40.2011 521.445 -57.8709 530.063 -73.6676C531.607 -76.826 533.21 -80.1766 534.532 -82.8394C542.521 -99.6429 566.444 -117.914 604.838 -101.929C635.897 -88.9911 658.263 -64.4416 671.826 -38.2423C685.464 -12.1591 689.824 15.0986 716.978 33.0206C740.742 48.6987 774.984 60.8037 811.226 75.0198C847.609 89.2779 884.83 106.085 919.867 126.393C955.095 146.494 989.106 170.103 1025.52 188.916C1061.82 207.599 1101.14 219.824 1139.04 221.785C1166.45 223.273 1196.47 215.578 1226.1 204.427C1256.48 192.989 1286.47 179.232 1321.92 151.812C1362.67 120.286 1404.44 77.7769 1441.99 31.3191C1479.67 -15.2264 1513.06 -65.4806 1540.44 -113.552C1553.58 -136.725 1565.97 -160.317 1577.59 -184.291C1604.24 -239.065 1623.92 -288.058 1639.83 -328.889C1655.76 -369.737 1668.18 -402.557 1680.57 -427.717C1682.79 -432.241 1685 -436.518 1687.24 -440.763C1690 -444.194 1692.69 -447.646 1695.31 -451.119C1710.81 -471.463 1724.95 -487.873 1729.48 -503.486C1731.69 -511.163 1731.52 -518.976 1728.48 -527.438C1728.25 -527.652 1728.34 -532.783 1727.81 -542.126C1726.8 -558.444 1724.84 -586.013 1718.36 -626.577C1716.37 -638.896 1713.75 -652.618 1710.66 -668.284C1707.66 -683.623 1704.84 -699.06 1701.38 -714.412C1694.72 -743.977 1686.49 -773.754 1677.57 -802.405C1670.3 -825.825 1662.73 -848.679 1656.08 -870.174C1653.13 -879.798 1650.16 -889.273 1646.7 -898.843C1642.86 -909.504 1638.52 -920.074 1634.19 -930.388C1624.53 -953.11 1614.22 -975.547 1603.26 -997.673C1592.86 -1018.69 1582.46 -1037.82 1571.65 -1054.94C1550.6 -1088.17 1528.46 -1114.74 1503.35 -1132.19C1478.32 -1149.62 1449.23 -1157.91 1418.88 -1152.08C1378.46 -1144.25 1343.11 -1144.11 1306.99 -1149.3C1270.93 -1154.45 1234.78 -1165.12 1200.84 -1180.27C1154.21 -1200.05 1113.49 -1231.37 1075.39 -1244.78C1037.87 -1258.16 996.866 -1245.56 973.57 -1186.15C957.926 -1146.08 931.789 -1102.63 903.382 -1057.93C874.546 -1013.46 844.552 -968.288 805.072 -945.454C765.64 -922.358 710.367 -932.693 648.217 -962.194C586.601 -990.724 517.724 -1039.41 458.631 -1084.71C399.869 -1129.56 352.233 -1167.91 341.083 -1164.46C309.254 -1159.16 325.728 -1082.38 438.024 -951.581C481.993 -901.058 530.057 -854.249 581.725 -811.632C629.291 -772.431 674.808 -741.239 714.831 -716.387C754.86 -691.24 792.955 -672.282 808.976 -653.985C816.503 -645.318 819.253 -637.594 819.262 -630.617C819.306 -620.574 812.839 -611.978 804.441 -604.958C788.364 -591.42 760.15 -581.767 722.461 -576.477C684.927 -571.07 637.734 -570.02 586.527 -570.842C526.536 -571.666 458.582 -575.522 391.521 -576.223C324.634 -576.867 258.926 -573.931 206.472 -560.865C153.957 -547.985 117.492 -524.008 104.395 -490.641C97.6215 -473.578 96.2147 -454.332 99.4998 -433.698C105.485 -395.827 125.434 -354.059 154.565 -312.515C179.462 -276.925 210.838 -241.611 244.167 -208.017C259.095 -192.937 277.489 -174.323 298.645 -155.464C337.66 -120.709 388.349 -85.1998 443.581 -64.7586V-64.7586Z" stroke="url(#paint3_linear_33_255)" stroke-width="1.5"/>
<path fill-rule="evenodd" clip-rule="evenodd" d="M445.923 -70.0597C511.651 -45.3214 521.469 -62.6161 530.104 -78.456C531.647 -81.6145 533.355 -84.9842 534.693 -87.6351C542.813 -104.343 568.914 -122.881 608.421 -107.122C640.42 -94.4207 664.406 -70.4894 680.249 -45.0821C696.165 -19.7269 704.942 5.99635 732.341 24.1804C756.311 40.086 790.792 52.406 827.452 66.4627C864.249 80.5793 902.092 96.94 938.135 116.186C974.341 135.23 1009.75 157.162 1047.35 173.63C1084.84 190.023 1125.01 199.423 1162.69 199.141C1190.61 199.051 1221.17 188.195 1250.6 174.851C1281.01 161.1 1311.29 144.489 1346.04 116.106C1385.48 83.9096 1425.33 41.9478 1460.81 -3.53511C1496.4 -49.0536 1527.57 -97.8177 1552.84 -144.166C1565.68 -167.724 1576.92 -190.588 1587.02 -212.393C1611.41 -264.993 1629.38 -311.609 1644.21 -349.985C1659.03 -388.354 1670.98 -418.708 1683.29 -441.473C1685.5 -445.558 1687.71 -449.439 1689.96 -453.297C1692.72 -456.323 1695.43 -459.498 1698.07 -462.562C1713.6 -480.797 1728.17 -495.58 1732.61 -510.557C1734.78 -517.864 1734.47 -525.645 1731.26 -534.1C1730.94 -534.428 1730.99 -539.41 1730.3 -548.653C1728.95 -565.008 1726.34 -592.688 1718.96 -633.826C1716.69 -646.377 1713.44 -661.022 1710.29 -676.488C1707.21 -691.619 1704.57 -706.879 1701.22 -721.982C1694.75 -751.195 1686.7 -780.645 1678.2 -808.987C1671.26 -832.195 1664.14 -854.835 1658.61 -875.968C1656.13 -885.466 1653.63 -894.709 1650.55 -904.263C1647.11 -914.832 1643.02 -925.428 1638.91 -935.67C1629.74 -958.339 1619.87 -980.715 1609.29 -1002.77C1599.84 -1022.43 1589.26 -1041.53 1577.62 -1059.98C1556.78 -1092.94 1534.98 -1119.42 1509.85 -1136.94C1484.78 -1154.4 1455.36 -1162.85 1423.95 -1157.3C1382.28 -1149.85 1345.95 -1149.9 1309.31 -1155.4C1272.74 -1160.91 1236.58 -1172.01 1202.82 -1187.9C1156.57 -1208.62 1116.65 -1240.96 1078.65 -1255.35C1041.25 -1269.74 999.202 -1258.08 973.337 -1198.86C955.949 -1158.9 928.465 -1115.31 899.104 -1070.46C869.326 -1025.86 838.797 -980.459 799.515 -957.27C760.277 -933.852 705.938 -943.675 644.757 -972.986C584.096 -1001.29 516.552 -1049.27 458.472 -1093.98C400.72 -1138.29 353.702 -1176.43 342.028 -1173.91C308.943 -1171.07 325.353 -1094.03 436.201 -962.703C479.569 -912.023 526.974 -864.943 577.952 -821.925C624.905 -782.303 669.888 -750.623 709.566 -725.194C749.318 -699.441 787.608 -679.568 804.388 -660.758C812.369 -651.729 815.531 -643.78 816.151 -636.608C817.064 -626.271 811.57 -617.337 804.011 -610.009C789.549 -595.906 762.979 -585.709 726.822 -579.802C690.813 -573.789 645.034 -572.188 594.813 -572.641C536.192 -573.041 469.231 -576.785 402.456 -577.769C335.86 -578.722 269.719 -576.539 216.074 -564.639C162.391 -552.847 123.206 -530.339 108.193 -497.764C100.432 -481.171 98.1442 -462.202 100.661 -441.753C105.259 -404.217 124.372 -362.341 153.409 -320.4C178.208 -284.504 210.039 -248.673 244.277 -214.577C259.672 -199.216 278.664 -180.391 300.363 -161.321C340.374 -126.251 391.722 -90.6211 445.923 -70.0597V-70.0597Z" stroke="url(#paint4_linear_33_255)" stroke-width="1.5"/>
<path fill-rule="evenodd" clip-rule="evenodd" d="M447.747 -75.3995C512.365 -50.4533 521.336 -67.3577 530.124 -83.2912C531.669 -86.4035 533.523 -89.8772 534.9 -92.4848C543.259 -109.143 571.659 -127.744 612.254 -112.334C645.145 -99.9055 670.762 -76.5999 688.916 -51.9793C707.131 -27.4034 720.02 -2.89857 747.657 15.3991C771.823 31.5032 806.608 43.8745 843.747 57.6535C881.032 71.4939 919.604 87.2422 956.696 105.333C993.943 123.21 1030.78 143.197 1069.52 157.328C1108.14 171.358 1149 177.898 1186.31 175.566C1214.64 173.902 1245.61 159.989 1274.7 144.584C1304.99 128.582 1335.39 109.288 1369.25 80.2119C1407.2 47.6183 1445 6.48697 1478.37 -37.7611C1511.86 -82.0634 1540.85 -129.246 1564.11 -173.839C1575.97 -196.569 1586.23 -218.596 1595.45 -239.503C1617.72 -289.915 1634.14 -334.172 1648.03 -370.133C1661.91 -406.098 1673.51 -434.019 1685.86 -454.48C1688.07 -458.132 1690.29 -461.545 1692.58 -465.137C1695.36 -467.793 1698.1 -470.603 1700.76 -473.363C1716.41 -489.627 1731.44 -502.863 1735.82 -517.27C1737.95 -524.328 1737.49 -532.042 1734.1 -540.555C1733.69 -540.954 1733.73 -545.91 1732.84 -555.057C1731.12 -571.557 1727.79 -599.432 1719.49 -641.268C1716.92 -654.062 1713.11 -669.363 1709.89 -684.619C1706.74 -699.578 1704.29 -714.557 1701.04 -729.515C1694.76 -758.448 1686.96 -787.476 1678.9 -815.545C1672.32 -838.518 1665.74 -860.967 1661.32 -881.756C1659.34 -891.118 1657.34 -900.154 1654.61 -909.649C1651.55 -920.153 1647.71 -930.709 1643.82 -940.884C1634.85 -964.407 1625.36 -986.85 1615.52 -1007.8C1605.65 -1028.77 1594.72 -1047.83 1583.95 -1065.03C1563.26 -1097.85 1541.63 -1124.11 1516.51 -1141.71C1491.45 -1159.22 1461.83 -1167.82 1429.37 -1162.55C1386.44 -1155.48 1349.16 -1155.77 1312.04 -1161.6C1274.97 -1167.4 1238.76 -1179.06 1205.21 -1195.59C1159.37 -1217.19 1120.29 -1250.66 1082.39 -1266C1045.1 -1281.3 1002.07 -1270.78 973.579 -1211.77C954.418 -1171.92 925.545 -1128.33 895.194 -1083.33C864.413 -1038.5 833.309 -992.904 794.18 -969.367C755.089 -945.566 701.684 -954.828 641.441 -983.87C581.709 -1011.96 515.448 -1059.16 458.346 -1103.34C401.568 -1147.1 355.123 -1185.05 342.905 -1183.5C308.47 -1183.23 324.589 -1106.2 433.93 -974.33C476.667 -923.445 523.416 -876.069 573.728 -832.659C620.088 -792.622 664.555 -760.386 703.917 -734.34C743.401 -707.869 781.813 -687.249 799.373 -667.829C807.846 -658.452 811.426 -650.147 812.657 -642.835C814.469 -632.163 809.952 -622.871 803.255 -615.251C790.498 -600.639 765.546 -589.783 730.954 -583.292C696.504 -576.666 652.174 -574.444 603.011 -574.526C545.831 -574.471 479.94 -577.971 413.559 -579.219C347.369 -580.398 280.932 -579.027 226.207 -568.137C171.475 -557.422 129.664 -536.35 112.689 -504.675C103.951 -488.55 100.71 -469.926 102.429 -449.703C105.554 -412.59 123.702 -370.656 152.497 -328.37C177.073 -292.19 209.219 -255.883 244.223 -221.317C260.014 -205.688 279.525 -186.61 301.688 -167.351C342.511 -131.869 394.443 -96.1589 447.747 -75.3995V-75.3995Z" stroke="url(#paint5_linear_33_255)" stroke-width="1.5"/>
<path fill-rule="evenodd" clip-rule="evenodd" d="M449.087 -80.8063C512.723 -55.6214 521.081 -72.2157 530.133 -88.1873C531.707 -91.2579 533.739 -94.7752 535.163 -97.3931C543.835 -113.944 574.716 -132.76 616.319 -117.576C650.064 -105.334 677.322 -82.689 697.807 -58.9252C718.358 -35.1412 735.085 -11.7629 762.912 6.6588C787.288 22.8259 822.392 35.1589 860.072 48.5882C897.918 62.0452 937.294 77.0561 975.5 93.8272C1013.86 110.339 1052.12 128.361 1091.92 140.023C1131.6 151.658 1172.98 155.401 1209.79 151.129C1238.44 147.882 1269.65 131.078 1298.25 113.743C1328.31 95.6156 1358.59 73.8385 1391.38 44.3258C1427.68 11.7 1463.38 -28.4608 1494.67 -71.369C1526.05 -114.353 1552.92 -159.689 1574.27 -202.526C1585.21 -224.392 1594.54 -245.619 1602.93 -265.582C1623.2 -313.83 1638.23 -355.731 1651.33 -389.344C1664.4 -422.935 1675.82 -448.531 1688.3 -466.787C1690.55 -470.08 1692.56 -473.513 1695.13 -476.31C1697.79 -479.165 1700.71 -481.126 1703.42 -483.547C1719.27 -497.968 1734.8 -509.741 1739.08 -523.705C1741.18 -530.56 1740.55 -538.197 1736.99 -546.849C1736.49 -547.347 1736.48 -552.246 1735.39 -561.385C1733.29 -578.084 1729.22 -606.363 1719.93 -648.918C1717.05 -662.03 1712.73 -677.633 1709.45 -692.67C1706.25 -707.444 1704 -722.247 1700.88 -736.973C1694.79 -765.542 1687.25 -794.392 1679.66 -822.075C1673.47 -844.84 1667.53 -867.079 1664.17 -887.481C1662.67 -896.618 1661.16 -905.519 1658.75 -914.964C1656.09 -925.357 1652.49 -935.884 1648.85 -946.029C1640.42 -969.45 1631.56 -991.907 1621.87 -1012.76C1612.69 -1032.46 1602.29 -1051.57 1590.74 -1069.99C1570.24 -1102.66 1548.79 -1128.87 1523.62 -1146.5C1498.52 -1164.07 1468.59 -1172.83 1435.07 -1167.83C1390.94 -1161.17 1352.7 -1161.66 1315.1 -1167.82C1277.74 -1173.95 1241.58 -1185.93 1207.95 -1203.33C1162.53 -1225.79 1124.3 -1260.39 1086.51 -1276.63C1049.34 -1292.82 1005.37 -1283.46 974.247 -1224.8C953.301 -1185.24 923.018 -1141.6 891.614 -1096.46C859.788 -1051.48 828.064 -1005.67 789.033 -981.704C750.052 -957.521 697.539 -966.021 638.203 -994.828C579.363 -1022.7 514.359 -1069.18 458.193 -1112.76C402.344 -1155.98 356.452 -1193.77 343.649 -1193.22C307.804 -1195.62 323.368 -1118.8 431.152 -986.41C473.294 -935.339 519.376 -887.653 568.975 -843.789C614.745 -803.31 658.743 -770.468 697.784 -743.773C737.035 -716.652 775.4 -695.213 793.797 -675.142C802.767 -665.253 806.835 -656.811 808.67 -649.241C811.396 -638.158 807.884 -628.558 802.066 -620.62C791.006 -605.364 767.748 -594.007 734.768 -586.857C701.911 -579.623 659.083 -576.743 611.038 -576.426C555.347 -575.853 490.611 -579.066 424.734 -580.523C359.041 -581.867 292.437 -581.112 236.749 -571.298C181.083 -561.582 136.784 -541.995 117.811 -511.255C108.047 -495.587 103.851 -477.4 104.723 -457.421C106.311 -420.779 123.371 -378.881 151.78 -336.321C176.017 -299.927 208.333 -263.158 243.954 -228.135C260.081 -212.238 280.01 -192.887 302.565 -173.475C344.117 -137.681 396.559 -101.729 449.087 -80.8063Z" stroke="url(#paint6_linear_33_255)" stroke-width="1.5"/>
<path fill-rule="evenodd" clip-rule="evenodd" d="M450.006 -86.2606C512.801 -60.8865 520.743 -77.0823 530.185 -93.1351C531.818 -96.1407 534.031 -99.7285 535.527 -102.334C544.591 -118.81 578.092 -137.69 620.67 -122.81C655.228 -110.835 684.129 -88.8323 706.956 -65.8776C729.874 -42.9167 750.132 -20.4227 778.152 -2.02372C802.706 14.1735 838.178 26.394 876.47 39.3015C914.919 52.2629 955.18 66.4671 994.539 81.7417C1034.03 96.8369 1073.73 112.665 1114.47 121.859C1155.12 130.999 1196.85 132.08 1233 126.017C1261.89 121.284 1293.16 101.606 1321.14 82.5661C1350.83 62.4468 1380.77 38.38 1412.33 8.72423C1446.88 -23.7283 1480.47 -62.7013 1509.68 -104.141C1538.98 -145.61 1563.82 -189.165 1583.38 -230.145C1593.43 -251.186 1601.89 -271.476 1609.51 -290.574C1627.96 -336.722 1641.76 -376.193 1654.21 -407.563C1666.62 -438.849 1677.95 -462.203 1690.67 -478.356C1692.91 -481.167 1695.02 -484.386 1697.64 -486.803C1700.35 -489.323 1703.32 -490.982 1706.07 -493.11C1722.17 -505.734 1738.24 -516.185 1742.44 -529.85C1744.49 -536.516 1743.72 -544.255 1739.94 -552.981C1739.33 -553.551 1739.3 -558.491 1738.02 -567.623C1735.5 -584.663 1730.71 -613.591 1720.29 -656.749C1716.87 -670.772 1712.34 -685.688 1709.02 -700.594C1705.77 -715.211 1703.73 -729.799 1700.73 -744.321C1694.88 -772.588 1687.6 -801.049 1680.54 -828.497C1674.75 -851 1669.44 -873.148 1667.15 -893.104C1666.12 -902.054 1665.09 -910.796 1663.05 -920.148C1660.77 -930.485 1657.4 -940.941 1654.01 -951.052C1646.18 -974.383 1637.85 -996.75 1628.36 -1017.59C1618.86 -1038.42 1608.3 -1057.57 1597.7 -1074.84C1577.69 -1107.33 1556.35 -1133.61 1531.13 -1151.27C1505.98 -1168.9 1475.72 -1177.82 1441.17 -1173.1C1395.88 -1166.85 1356.69 -1167.52 1318.61 -1174.05C1281 -1180.42 1244.69 -1192.91 1211.13 -1211.04C1166.14 -1234.35 1128.71 -1269.98 1091.03 -1287.23C1053.99 -1304.36 1009.26 -1296.18 975.421 -1237.9C952.617 -1198.52 920.836 -1155.1 888.322 -1109.83C855.398 -1064.78 822.981 -1018.69 783.999 -994.314C745.05 -969.694 693.45 -977.475 634.996 -1005.93C577.056 -1033.58 513.273 -1079.18 458.055 -1122.22C403.139 -1164.84 357.79 -1202.42 344.381 -1202.93C307.096 -1208.1 321.861 -1131.72 428.01 -998.848C469.528 -947.571 514.938 -899.571 563.835 -855.273C609.02 -814.295 652.564 -780.863 691.28 -753.465C730.306 -725.638 768.119 -703.677 787.675 -682.744C797.326 -672.34 801.812 -663.57 804.25 -655.816C807.914 -644.299 805.425 -634.389 800.52 -626.09C791.174 -610.232 769.651 -598.293 738.289 -590.494C707.067 -582.625 665.776 -579.138 618.895 -578.33C564.765 -577.237 501.256 -580.096 435.988 -581.671C370.912 -583.14 304.229 -582.923 247.717 -574.08C191.203 -565.384 144.588 -547.162 123.602 -517.478C112.832 -502.384 107.63 -484.532 107.649 -464.88C107.628 -428.785 123.507 -386.967 151.389 -344.201C175.16 -307.578 207.527 -270.48 243.62 -234.986C260.023 -218.849 280.287 -199.249 303.168 -179.639C345.293 -143.543 398.139 -107.366 450.006 -86.2606V-86.2606Z" stroke="url(#paint7_linear_33_255)" stroke-width="1.5"/>
<path fill-rule="evenodd" clip-rule="evenodd" d="M450.512 -91.812C512.68 -66.121 520.335 -82.0343 530.277 -98.1592C531.963 -101.128 534.41 -104.796 535.972 -107.354C545.5 -123.696 581.764 -142.662 625.257 -128.087C660.576 -116.324 691.146 -94.9772 716.345 -72.8999C741.643 -50.8151 765.183 -29.0359 793.366 -10.7566C818.099 5.36051 853.989 17.339 892.909 29.7091C932.01 42.1003 973.223 55.2613 1013.77 68.9804C1054.42 82.4882 1095.51 96.0781 1137.1 102.751C1178.6 109.407 1220.51 107.898 1255.88 100.161C1284.91 93.9243 1316.08 71.5545 1343.27 50.9858C1372.47 28.9631 1401.78 3.0455 1432.04 -26.6276C1464.74 -58.6747 1496.22 -96.3228 1523.42 -136.161C1550.69 -176.053 1573.6 -217.699 1591.47 -256.813C1600.68 -276.958 1608.35 -296.407 1615.28 -314.612C1632.04 -358.647 1644.75 -395.864 1656.68 -424.971C1668.58 -454.045 1679.93 -475.207 1692.95 -489.333C1695.26 -491.82 1697.43 -494.607 1700.11 -496.747C1702.89 -498.944 1705.92 -500.307 1708.72 -502.17C1725.12 -513.153 1741.75 -522.406 1745.87 -535.819C1747.88 -542.409 1746.93 -550.187 1742.93 -559.087C1742.23 -559.793 1742.15 -564.705 1740.65 -573.909C1737.67 -591.322 1732.31 -620.163 1720.42 -665.158C1716.71 -679.101 1711.92 -693.793 1708.56 -708.495C1705.26 -722.956 1703.45 -737.322 1700.58 -751.664C1694.97 -779.592 1688 -807.818 1681.46 -834.946C1676.11 -857.307 1671.36 -879.103 1670.16 -898.711C1669.61 -907.529 1669.09 -916.053 1667.4 -925.323C1665.52 -935.532 1662.42 -945.99 1659.27 -956.054C1652.02 -979.196 1644.18 -1001.6 1634.89 -1022.4C1625.58 -1043.19 1615.16 -1062.35 1604.75 -1079.68C1585.22 -1112.06 1564.25 -1138.39 1538.95 -1156.1C1513.73 -1173.79 1483.16 -1182.86 1447.58 -1178.44C1401.14 -1172.58 1361.04 -1173.53 1322.47 -1180.37C1283.93 -1187.21 1247.56 -1200.24 1214.69 -1218.85C1170.13 -1242.99 1133.56 -1279.68 1096.02 -1297.83C1059.13 -1315.85 1013.58 -1308.85 977.049 -1251.16C952.432 -1212.21 919.152 -1168.86 885.507 -1123.5C851.447 -1078.31 818.302 -1032 779.32 -1007.15C740.386 -982.105 689.643 -988.891 632.042 -1017.03C574.933 -1044.38 512.331 -1089.25 457.98 -1131.7C403.919 -1173.76 359.077 -1211.24 345.034 -1212.81C306.264 -1220.84 320.002 -1145.18 424.437 -1011.79C467.667 -957.225 513.697 -908.587 558.215 -867.225C602.839 -825.726 645.907 -791.62 684.346 -763.534C723.169 -734.941 760.901 -712.139 781.001 -690.673C791.063 -679.924 796.251 -670.632 799.328 -662.669C803.959 -650.722 802.515 -640.415 798.523 -631.779C790.949 -615.31 771.164 -602.728 741.492 -594.295C711.929 -585.798 672.229 -581.61 626.568 -580.33C574.048 -578.643 511.848 -581.144 447.278 -582.776C382.903 -584.311 316.288 -584.551 259.044 -576.649C201.856 -568.811 153.118 -552.059 130.076 -523.429C118.263 -508.851 112.049 -491.51 111.143 -472.179C109.443 -436.698 124.025 -395.035 151.263 -352.129C174.459 -315.392 206.734 -277.886 243.158 -241.988C259.77 -225.558 280.311 -205.782 303.429 -185.967C346 -149.52 399.185 -113.176 450.512 -91.812V-91.812Z" stroke="url(#paint8_linear_33_255)" stroke-width="1.5"/>
<path fill-rule="evenodd" clip-rule="evenodd" d="M450.667 -97.4365C512.241 -71.4688 519.879 -87.1183 530.418 -103.244C532.189 -106.171 534.89 -109.869 536.535 -112.432C546.604 -128.655 585.773 -147.682 630.112 -133.387C666.162 -121.869 698.403 -101.169 725.963 -79.9614C753.658 -58.6766 780.234 -37.5711 808.561 -19.4971C833.463 -3.5629 869.768 8.19142 909.39 19.8343C949.183 31.4968 991.399 43.6138 1033.13 55.6122C1074.96 67.4335 1117.4 78.6511 1159.7 82.8246C1201.93 87.004 1243.84 82.9857 1278.33 73.7377C1307.36 66.0616 1338.25 41.1809 1364.55 19.2019C1393.1 -4.51966 1421.59 -32.0836 1450.44 -61.5165C1481.26 -92.9436 1510.65 -129.159 1535.92 -167.32C1561.23 -205.493 1582.32 -245.195 1598.64 -282.484C1607.09 -301.747 1614.02 -320.365 1620.28 -337.67C1650.37 -421.226 1668.15 -474.987 1695.23 -499.719C1697.62 -501.889 1699.84 -504.318 1702.62 -506.147C1705.46 -508.002 1708.56 -509.162 1711.43 -510.736C1728.18 -520.161 1745.38 -528.364 1749.4 -541.646C1751.34 -548.174 1750.23 -556.109 1746.01 -565.165C1745.19 -566.028 1745.04 -570.925 1743.33 -580.256C1739.91 -598.221 1733.18 -629.342 1720.56 -673.497C1716.61 -687.249 1711.52 -701.801 1708.11 -716.316C1704.77 -730.572 1703.2 -744.797 1700.47 -758.95C1695.15 -786.601 1688.53 -814.505 1682.51 -841.345C1677.56 -863.426 1673.41 -885.006 1673.29 -904.266C1673.24 -912.939 1673.21 -921.23 1671.89 -930.441C1670.42 -940.544 1667.59 -950.992 1664.7 -960.987C1658.05 -984.022 1650.65 -1006.38 1641.55 -1027.14C1632.44 -1047.91 1622.17 -1067.1 1611.94 -1084.5C1592.93 -1116.72 1572.55 -1143.11 1547.16 -1160.95C1521.86 -1178.69 1490.98 -1188.01 1454.36 -1183.83C1406.81 -1178.38 1365.8 -1179.55 1326.75 -1186.74C1287.74 -1193.9 1251.32 -1207.41 1218.69 -1226.68C1174.58 -1251.63 1138.88 -1289.35 1101.51 -1308.38C1064.79 -1327.3 1018.48 -1321.53 979.247 -1264.52C952.799 -1226.05 917.985 -1182.81 883.179 -1137.44C847.946 -1092.2 814.023 -1045.58 774.982 -1020.23C735.985 -994.641 686.102 -1000.37 629.316 -1028.17C573.012 -1055.22 511.537 -1099.25 458.039 -1141.21C404.814 -1182.77 360.432 -1220.03 345.733 -1222.73C305.435 -1233.58 317.933 -1158.95 420.57 -1025.15C462.969 -970.509 508.312 -921.505 552.262 -879.604C596.315 -837.604 638.943 -802.746 677.08 -773.957C715.702 -744.553 753.363 -720.843 773.984 -698.867C784.43 -687.676 790.261 -678 793.96 -669.794C799.587 -657.33 799.19 -646.636 796.151 -637.655C790.374 -620.506 772.379 -607.31 744.407 -598.223C716.546 -589.089 678.462 -584.234 634.079 -582.407C583.214 -580.129 522.403 -582.203 458.627 -583.802C395.058 -585.32 328.621 -586.017 270.753 -578.938C212.976 -571.971 162.306 -556.565 137.204 -529.073C124.342 -515.085 117.096 -498.221 115.252 -479.269C111.817 -444.448 125.021 -403.118 151.469 -360.052C173.987 -323.272 206.053 -285.397 242.668 -249.108C259.426 -232.452 280.153 -212.415 303.455 -192.441C346.338 -155.609 399.812 -119.042 450.667 -97.4365Z" stroke="url(#paint9_linear_33_255)" stroke-width="1.5"/>
<path fill-rule="evenodd" clip-rule="evenodd" d="M450.514 -103.15C511.611 -76.9414 519.404 -92.2063 530.652 -108.387C532.524 -111.315 535.505 -115.04 537.245 -117.568C547.902 -133.628 590.132 -152.718 635.246 -138.706C671.961 -127.425 705.897 -107.404 735.836 -87.0635C765.952 -66.6755 795.322 -46.1189 823.767 -28.3009C848.829 -12.6063 885.573 -1.17299 925.908 9.67117C966.421 20.5544 1009.7 31.3981 1052.59 41.6258C1095.59 51.6422 1139.28 60.4323 1182.19 62.1248C1225.01 63.8218 1266.76 57.4143 1300.23 46.8198C1329.19 37.8072 1359.61 10.4488 1384.87 -12.6607C1412.66 -37.9994 1440.07 -66.6834 1467.47 -95.8003C1496.39 -126.481 1523.78 -161.132 1547.19 -197.549C1569.55 -232.352 1588.87 -269.017 1604.93 -307.137C1612.65 -325.492 1618.9 -343.265 1624.6 -359.733C1651.84 -439.11 1669.49 -488.444 1697.51 -509.563C1699.96 -511.4 1702.28 -513.518 1705.15 -515.057C1708.06 -516.634 1711.25 -517.521 1714.18 -518.864C1731.34 -526.862 1749.12 -534.098 1753.02 -547.386C1754.91 -553.909 1753.59 -562.012 1749.12 -571.303C1748.18 -572.242 1748 -577.291 1746.05 -586.727C1742.13 -605.281 1734.05 -638.376 1720.7 -681.771C1716.51 -695.38 1711.12 -709.758 1707.66 -724.093C1704.27 -738.184 1702.97 -752.285 1700.39 -766.196C1695.37 -793.543 1689.13 -821.093 1683.6 -847.704C1679.06 -869.62 1675.51 -890.905 1676.52 -909.782C1676.96 -918.231 1677.45 -926.396 1676.5 -935.513C1675.45 -945.554 1672.91 -955.913 1670.28 -965.878C1664.25 -988.789 1657.22 -1011.07 1648.34 -1031.84C1639.45 -1052.61 1629.33 -1071.83 1619.28 -1089.28C1600.76 -1121.38 1581.25 -1147.93 1555.76 -1165.83C1530.34 -1183.67 1499.12 -1193.07 1461.51 -1189.25C1412.89 -1184.19 1370.98 -1185.6 1331.46 -1193.16C1291.97 -1200.62 1255.51 -1214.66 1223.13 -1234.55C1179.47 -1260.31 1144.65 -1298.96 1107.46 -1318.88C1070.93 -1338.61 1023.94 -1334.12 981.971 -1277.95C953.693 -1240.07 917.329 -1197.06 881.296 -1151.61C844.83 -1106.26 810.081 -1059.43 770.951 -1033.55C731.848 -1007.44 682.798 -1011.9 626.792 -1039.36C571.255 -1066.06 510.896 -1109.35 458.201 -1150.72C405.769 -1191.7 361.834 -1228.89 346.467 -1232.7C304.623 -1246.43 315.649 -1173.05 416.419 -1038.9C457.938 -984.223 502.588 -934.811 545.973 -892.391C589.456 -849.848 631.638 -814.252 669.484 -784.721C707.92 -754.484 745.506 -729.841 766.605 -707.32C777.431 -695.707 783.785 -685.699 788.114 -677.203C794.758 -664.228 795.449 -653.06 793.378 -643.719C789.448 -625.863 773.255 -612.069 747.031 -602.283C720.9 -592.453 684.482 -586.959 641.417 -584.56C592.26 -581.673 532.91 -583.252 470.011 -584.768C407.326 -586.183 341.191 -587.201 282.828 -580.954C224.571 -574.73 172.207 -560.675 145.037 -534.377C131.115 -520.973 122.831 -504.651 120.018 -486.111C114.805 -452.086 126.515 -410.999 152.072 -367.936C173.811 -331.113 205.543 -293 242.22 -256.315C259.092 -239.464 279.911 -219.21 303.315 -199.025C346.377 -161.861 400.026 -124.942 450.514 -103.15Z" stroke="url(#paint10_linear_33_255)" stroke-width="1.5"/>
<path fill-rule="evenodd" clip-rule="evenodd" d="M450.099 -108.95C510.798 -82.3948 518.94 -97.3805 531 -113.589C532.983 -116.462 536.267 -120.219 538.114 -122.747C549.402 -138.654 594.834 -157.738 640.647 -144.031C677.973 -132.968 713.602 -113.617 745.926 -94.1986C778.458 -74.6805 810.4 -54.6555 838.944 -37.1606C864.13 -21.7391 901.357 -10.7943 942.433 -0.771834C983.686 9.2621 1028.04 18.7529 1072.09 27.0795C1116.23 35.2015 1161.09 41.5058 1204.44 40.7373C1247.73 39.9664 1289.11 31.3109 1321.49 19.5389C1350.27 9.20893 1380.03 -20.3192 1404.15 -44.4751C1431.03 -71.2264 1457.15 -100.733 1483.1 -129.36C1537.62 -189.13 1583.6 -263.758 1610.4 -330.738C1617.48 -348.218 1623.11 -365.172 1628.27 -380.798C1652.99 -456.18 1670.76 -501.221 1699.8 -518.848C1702.35 -520.385 1704.77 -522.173 1707.74 -523.457C1710.74 -524.769 1713.98 -525.418 1717.01 -526.543C1734.58 -533.276 1752.97 -539.633 1756.73 -553.04C1758.55 -559.617 1757.03 -567.97 1752.32 -577.467C1751.27 -578.564 1750.99 -583.666 1748.79 -593.29C1744.36 -612.592 1734.93 -647.302 1720.86 -689.901C1716.42 -703.33 1710.7 -717.52 1707.22 -731.735C1703.8 -745.675 1702.74 -759.555 1700.36 -773.329C1695.63 -800.354 1689.77 -827.671 1684.75 -853.97C1680.64 -875.681 1677.71 -896.718 1679.85 -915.189C1680.81 -923.527 1681.81 -931.414 1681.24 -940.47C1680.62 -950.354 1678.35 -960.735 1676.01 -970.641C1670.63 -993.403 1663.92 -1015.68 1655.26 -1036.42C1646.58 -1057.16 1636.62 -1076.45 1626.78 -1093.96C1608.77 -1125.93 1589.61 -1152.71 1564.62 -1170.67C1539.69 -1188.6 1507.64 -1198.2 1469.02 -1194.64C1419.39 -1190.03 1376.58 -1191.66 1336.6 -1199.55C1296.66 -1207.38 1260.15 -1221.87 1228.02 -1242.37C1184.82 -1268.87 1150.88 -1308.47 1113.89 -1329.25C1077.57 -1349.87 1029.94 -1346.5 985.262 -1291.34C955.144 -1254.09 917.203 -1211.39 879.914 -1165.93C842.2 -1120.56 806.564 -1073.48 767.275 -1047.01C728.019 -1020.38 679.771 -1023.43 624.515 -1050.49C569.731 -1076.86 510.433 -1119.33 458.503 -1160.12C406.843 -1200.57 363.33 -1237.63 347.261 -1242.56C303.875 -1259.18 313.226 -1187.4 412.019 -1052.95C452.622 -998.316 496.562 -948.505 539.376 -905.51C582.267 -862.373 624.03 -826.089 661.561 -795.775C699.817 -764.668 737.316 -739.065 758.868 -715.967C770.06 -703.934 776.594 -693.744 781.691 -684.889C789.57 -671.227 791.27 -659.674 790.178 -649.923C788.12 -631.339 773.773 -616.857 749.317 -606.414C724.951 -595.901 690.216 -589.681 648.537 -586.728C601.129 -583.206 543.304 -584.234 481.383 -585.63C419.668 -586.891 353.944 -588.222 295.204 -582.677C236.54 -577.202 185.233 -564.347 153.885 -539.296C137.805 -526.503 129.22 -510.738 125.412 -492.65C118.379 -459.438 128.534 -418.778 153.068 -375.722C173.908 -338.912 205.194 -300.581 241.817 -263.546C258.709 -246.463 279.573 -226.035 303.032 -205.658C346.149 -168.245 399.898 -130.997 450.099 -108.95V-108.95Z" stroke="url(#paint11_linear_33_255)" stroke-width="1.5"/>
<path fill-rule="evenodd" clip-rule="evenodd" d="M449.441 -114.838C509.831 -87.9759 518.494 -102.616 531.45 -118.849C533.56 -121.664 537.177 -125.456 539.126 -127.967C551.101 -143.667 599.855 -162.75 646.294 -149.352C684.169 -138.518 721.51 -119.834 756.21 -101.347C789.262 -83.6933 821.896 -65.2695 854.087 -46.0911C879.387 -30.9904 917.09 -20.5535 958.914 -11.5077C1002.82 -2.08628 1047.05 5.74791 1091.52 11.9796C1136.76 18.1371 1182.68 21.8808 1226.33 18.718C1269.92 15.5819 1310.78 4.74282 1341.97 -8.04748C1370.46 -19.6212 1399.42 -51.2052 1422.27 -76.1547C1448.13 -104.18 1472.81 -134.161 1497.28 -162.127C1548.07 -219.834 1590.54 -289.942 1615.06 -353.355C1621.57 -369.967 1626.61 -386.082 1631.32 -400.911C1653.76 -472.367 1671.89 -513.276 1702.07 -527.67C1704.73 -528.941 1707.23 -530.376 1710.32 -531.435C1713.41 -532.476 1716.74 -532.934 1719.86 -533.851C1737.86 -539.346 1756.98 -544.844 1760.36 -559.336C1761.98 -566.46 1760.28 -574.954 1755.44 -584.106C1754.29 -585.182 1753.91 -590.438 1751.49 -600.155C1746.53 -619.969 1735.8 -656.14 1720.98 -697.972C1716.31 -711.231 1710.26 -725.309 1706.74 -739.343C1703.29 -753.118 1702.53 -766.861 1700.31 -780.441C1695.93 -807.164 1690.4 -834.151 1685.91 -860.189C1682.23 -881.672 1679.96 -902.521 1683.24 -920.569C1684.71 -928.701 1686.23 -936.363 1686.06 -945.379C1685.87 -955.18 1683.89 -965.49 1681.84 -975.362C1677.14 -998.027 1670.67 -1020.21 1662.25 -1040.95C1653.8 -1061.69 1643.99 -1081 1634.38 -1098.62C1616.89 -1130.46 1598.24 -1157.32 1573.55 -1175.55C1548.93 -1193.73 1516.44 -1203.33 1476.85 -1200.09C1426.23 -1195.89 1382.56 -1197.83 1342.12 -1206.01C1301.73 -1214.16 1265.16 -1229.09 1233.3 -1250.23C1204.88 -1268.7 1180.34 -1292.31 1156.65 -1312.95C1132.99 -1333.48 1109.73 -1349.59 1081.59 -1351.57C1053.71 -1353.74 1020.27 -1340.55 989.065 -1304.77C957.123 -1268.29 917.57 -1225.92 878.99 -1180.46C839.975 -1135.09 803.393 -1087.71 763.92 -1060.69C724.46 -1033.48 676.978 -1035 622.442 -1061.64C568.368 -1087.64 510.086 -1129.24 458.913 -1169.51C407.995 -1209.43 364.878 -1246.29 348.11 -1252.43C303.202 -1271.96 310.65 -1202 407.359 -1067.37C447.006 -1012.81 490.216 -962.602 532.438 -919.064C574.742 -875.364 616.078 -838.343 653.299 -807.227C691.373 -775.232 728.785 -748.679 750.752 -724.932C762.311 -712.433 769.198 -701.934 774.776 -692.888C783.48 -678.775 786.593 -666.551 786.51 -656.355C786.383 -637.013 773.886 -621.87 751.242 -610.699C728.675 -599.543 695.661 -592.546 655.399 -589.004C609.783 -584.775 553.532 -585.271 492.674 -586.461C432.034 -587.532 366.837 -589.04 307.824 -584.166C248.904 -579.303 196.55 -567.701 163.445 -543.865C146.48 -531.709 136.236 -516.572 131.402 -498.915C122.501 -466.559 131.014 -426.351 154.437 -383.436C174.327 -346.769 205.029 -308.168 241.482 -270.859C258.349 -253.541 279.182 -232.935 302.613 -212.415C345.699 -174.713 399.47 -137.158 449.441 -114.838V-114.838Z" stroke="url(#paint12_linear_33_255)" stroke-width="1.5"/>
<path fill-rule="evenodd" clip-rule="evenodd" d="M448.611 -120.814C508.776 -93.65 518.111 -107.92 532.07 -124.158C534.299 -126.916 538.308 -130.798 540.364 -133.236C553.06 -148.741 605.264 -167.794 652.239 -154.682C690.596 -144.043 729.661 -126.097 766.731 -108.525C804.078 -90.8053 840.555 -71.7342 869.237 -55.1076C894.626 -40.424 932.81 -30.5306 975.404 -22.5315C1020.26 -14.1589 1065.48 -7.85953 1110.92 -3.65344C1157.21 0.492528 1204.05 1.68156 1247.85 -3.85498C1291.6 -9.34467 1331.75 -22.0772 1361.69 -35.8233C1389.75 -48.5346 1416.98 -80.2723 1439.36 -107.782C1464.9 -139.05 1487 -166.782 1510.11 -194.013C1557.31 -249.54 1596.59 -315.054 1619.1 -374.961C1625.08 -390.706 1629.64 -406.085 1633.93 -420.079C1654.37 -487.764 1673.05 -524.737 1704.46 -536.035C1707.2 -536.983 1709.83 -538.217 1713.03 -539.02C1716.24 -539.843 1719.66 -540.099 1722.85 -540.834C1741.29 -545.279 1760.89 -550.998 1764 -565.798C1765.49 -573.038 1763.58 -581.746 1758.52 -591.178C1757.26 -592.346 1756.78 -597.775 1754.13 -607.628C1748.58 -628.162 1736.71 -664.819 1721.14 -705.954C1716.22 -719.006 1709.85 -732.956 1706.32 -746.845C1702.85 -760.503 1702.38 -774.078 1700.35 -787.451C1696.34 -813.928 1691.11 -840.578 1687.18 -866.331C1683.94 -887.573 1682.32 -908.215 1686.78 -925.857C1688.78 -933.847 1690.83 -941.299 1691.07 -950.2C1691.31 -959.855 1689.66 -970.17 1687.9 -979.992C1683.92 -1002.36 1677.74 -1024.27 1669.43 -1045.41C1661.22 -1066.14 1651.6 -1085.56 1642.19 -1103.22C1625.23 -1134.94 1607.11 -1161.91 1582.73 -1180.35C1558.41 -1198.72 1525.66 -1208.48 1485.11 -1205.55C1433.56 -1201.79 1389.01 -1203.93 1348.15 -1212.48C1307.29 -1220.95 1270.7 -1236.32 1239.11 -1258.06C1211.01 -1277.02 1186.96 -1301.15 1163.66 -1322.33C1140.94 -1342.77 1116.99 -1359.22 1088.47 -1362.01C1060.22 -1364.95 1026.58 -1353.15 993.536 -1318.15C959.76 -1282.48 918.583 -1240.54 878.672 -1195.14C838.328 -1149.84 800.746 -1102.18 761.018 -1074.55C721.283 -1046.71 674.557 -1046.58 620.715 -1072.76C567.315 -1098.35 510.036 -1139.13 459.58 -1178.8C409.373 -1218.15 366.636 -1254.92 349.151 -1262.19C302.72 -1284.58 308.087 -1216.83 402.606 -1082.08C441.255 -1027.65 483.71 -977.099 525.327 -932.977C567.031 -888.712 607.913 -850.909 644.821 -819.023C682.713 -786.112 720.025 -758.533 742.386 -734.177C754.284 -721.18 761.517 -710.393 767.553 -701.114C777.048 -686.518 781.512 -673.639 782.467 -663.006C784.287 -642.784 773.708 -626.969 752.895 -615.103C732.147 -603.235 700.898 -595.532 662.099 -591.349C618.308 -586.44 563.714 -586.353 503.993 -587.255C444.507 -588.081 379.922 -589.678 320.764 -585.421C261.704 -581.143 208.413 -570.581 173.665 -548.065C155.865 -536.569 143.974 -522.022 138.126 -504.886C127.344 -473.481 134.16 -433.835 156.356 -391.053C175.188 -354.541 205.223 -315.8 241.371 -278.212C258.17 -260.707 278.889 -239.969 302.24 -219.251C345.098 -181.285 398.808 -143.418 448.611 -120.814V-120.814Z" stroke="url(#paint13_linear_33_255)" stroke-width="1.5"/>
<path fill-rule="evenodd" clip-rule="evenodd" d="M447.634 -126.876C507.626 -99.3742 517.814 -113.335 532.835 -129.522C535.203 -132.229 539.605 -136.156 541.784 -138.555C555.225 -153.851 611.001 -172.826 658.432 -160.023C697.222 -149.66 737.998 -132.327 777.422 -115.745C817.164 -98.9819 855.615 -80.3957 884.322 -64.2428C909.764 -49.9546 948.452 -40.7576 991.795 -33.8543C1035.33 -26.9372 1082.94 -22.0074 1130.13 -19.7957C1177.37 -17.73 1225.03 -19.1973 1268.8 -26.9261C1312.56 -34.6945 1351.85 -49.244 1380.47 -63.727C1408.08 -77.5349 1434.49 -111.745 1455.25 -139.37C1479.35 -171.259 1499.79 -198.555 1521.49 -224.993C1565.25 -278.131 1601.72 -339.189 1622.44 -395.634C1627.96 -410.548 1632.06 -425.102 1635.99 -438.381C1654.71 -502.394 1674.13 -535.67 1706.83 -544.062C1709.68 -544.748 1712.42 -545.737 1715.75 -546.315C1719.06 -546.925 1722.56 -547.014 1725.84 -547.582C1744.75 -551.086 1764.75 -557.281 1767.59 -572.388C1768.93 -579.767 1766.8 -588.714 1761.53 -598.407C1760.15 -599.724 1759.56 -605.29 1756.66 -615.282C1750.5 -636.529 1737.56 -673.422 1721.28 -713.883C1716.12 -726.82 1709.41 -740.607 1705.85 -754.338C1702.36 -767.884 1702.21 -781.245 1700.38 -794.466C1696.71 -820.633 1691.83 -847.041 1688.43 -872.482C1685.66 -893.526 1684.7 -913.961 1690.35 -931.167C1692.9 -938.917 1695.47 -946.231 1696.12 -955.031C1696.84 -964.602 1695.47 -974.835 1694.03 -984.594C1690.74 -1006.98 1684.61 -1029.13 1676.67 -1049.86C1668.72 -1070.61 1659.28 -1090.09 1650.08 -1107.84C1633.65 -1139.46 1616.05 -1166.44 1591.98 -1185.17C1567.98 -1203.81 1535.12 -1213.69 1493.6 -1211.07C1441.16 -1207.71 1395.81 -1210.17 1354.51 -1219.02C1313.23 -1227.83 1276.59 -1243.61 1245.28 -1265.94C1217.51 -1285.33 1194.13 -1310.31 1171.25 -1331.19C1148.36 -1351.84 1124.22 -1368.66 1095.36 -1372.22C1066.74 -1375.91 1032.99 -1365.01 998.482 -1331.46C963.209 -1297.28 920.061 -1255.3 878.809 -1210.02C837.087 -1164.78 798.467 -1116.91 758.427 -1088.62C718.37 -1060.18 672.355 -1058.22 619.176 -1083.92C566.427 -1109.06 510.096 -1148.92 460.333 -1188.07C410.805 -1226.86 368.434 -1263.46 350.231 -1271.93C302.301 -1297.14 305.385 -1231.82 397.61 -1097.15C435.211 -1042.88 476.873 -991.989 517.877 -947.332C558.965 -902.523 599.391 -863.928 635.972 -831.247C673.67 -797.344 710.883 -768.798 733.594 -743.791C745.824 -730.264 753.39 -719.155 759.856 -709.647C770.147 -694.595 775.837 -681.027 777.854 -669.935C781.673 -648.815 773.025 -632.298 754.074 -619.704C735.181 -607.119 705.722 -598.696 668.437 -593.844C626.514 -588.239 573.602 -587.446 515.123 -588.088C456.853 -588.547 393.027 -590.284 333.823 -586.517C274.748 -582.802 220.628 -573.207 184.334 -551.939C165.753 -541.149 152.287 -527.181 145.392 -510.597C132.698 -480.168 137.756 -441.158 158.639 -398.607C176.337 -362.29 205.594 -323.456 241.338 -285.65C258.004 -268.016 278.545 -247.037 301.752 -226.224C344.373 -187.948 397.932 -149.786 447.629 -126.877L447.634 -126.876Z" stroke="url(#paint14_linear_33_255)" stroke-width="1.5"/>
<path fill-rule="evenodd" clip-rule="evenodd" d="M446.548 -133.044C506.428 -105.175 517.621 -118.8 533.805 -134.939C536.315 -137.613 541.158 -141.538 543.44 -143.901C557.643 -158.913 617.11 -177.817 664.911 -165.356C704.062 -155.226 746.553 -138.578 788.319 -122.971C830.435 -107.149 870.688 -89.0588 899.402 -73.4929C924.894 -59.7477 964.054 -51.1971 1008.14 -45.4544C1052.42 -39.6995 1101.07 -36.4408 1149.14 -36.4056C1197.28 -36.4581 1245.58 -40.4465 1289.18 -50.4097C1332.77 -60.3378 1371.07 -76.598 1398.31 -91.6639C1425.38 -106.518 1450.71 -142.785 1469.84 -170.373C1492.39 -202.697 1511.18 -229.481 1531.56 -255.011C1572.1 -305.715 1606.07 -362.269 1625.27 -415.377C1630.36 -429.434 1634.1 -443.37 1637.71 -455.839C1654.94 -516.344 1675.27 -546.111 1709.31 -551.768C1712.28 -552.196 1715.15 -552.962 1718.61 -553.343C1722.01 -553.716 1725.63 -553.723 1728.99 -554.139C1748.38 -556.826 1768.65 -563.673 1771.21 -579.085C1772.42 -586.629 1770.05 -595.768 1764.56 -605.782C1763.04 -607.251 1762.37 -612.961 1759.22 -623.087C1752.43 -645.093 1738.5 -681.968 1721.5 -721.769C1716.08 -734.566 1709.04 -748.206 1705.47 -761.784C1701.95 -775.169 1702.14 -788.381 1700.49 -801.442C1697.17 -827.331 1692.63 -853.404 1689.82 -878.59C1687.53 -899.442 1687.26 -919.642 1694.11 -936.427C1697.2 -944.002 1700.32 -951.086 1701.39 -959.801C1702.57 -969.234 1701.55 -979.459 1700.41 -989.162C1697.86 -1011.41 1691.8 -1033.49 1684.12 -1054.29C1676.44 -1075.05 1667.19 -1094.58 1658.23 -1112.43C1642.33 -1143.96 1625.27 -1171.06 1601.51 -1189.99C1577.83 -1208.84 1545.01 -1218.97 1502.55 -1216.64C1449.28 -1213.74 1403.08 -1216.4 1361.38 -1225.6C1319.68 -1234.75 1283.01 -1250.95 1251.99 -1273.82C1224.55 -1293.65 1202.03 -1318.78 1178.97 -1339.84C1155.92 -1360.75 1131.63 -1377.88 1102.42 -1382.16C1073.47 -1386.57 1039.16 -1376.77 1003.78 -1344.43C967.617 -1311.53 922.266 -1270.22 879.613 -1225.03C836.489 -1179.92 796.765 -1131.77 756.373 -1102.86C715.932 -1073.78 670.605 -1069.9 618.047 -1095.03C565.913 -1119.68 510.5 -1158.67 461.402 -1197.24C412.531 -1235.46 370.502 -1271.9 351.577 -1281.54C302.204 -1309.58 302.808 -1246.94 392.605 -1112.47C429.111 -1058.47 469.96 -1007.28 510.319 -962.071C550.764 -916.718 590.735 -877.382 626.965 -843.878C664.476 -809.028 701.561 -779.451 724.595 -753.741C737.166 -739.73 745.032 -728.276 751.91 -718.487C762.942 -702.814 769.77 -688.806 772.871 -677.164C778.737 -655.047 772.055 -637.821 755 -624.476C737.993 -611.141 710.351 -601.998 674.615 -596.462C634.584 -590.088 583.429 -588.704 526.242 -588.944C469.275 -589.065 406.277 -590.698 347.161 -587.45C288.167 -584.162 233.376 -575.553 195.615 -555.498C176.291 -545.265 161.337 -532.062 153.394 -516.023C138.776 -486.607 142.034 -448.314 161.508 -406.074C177.986 -369.991 206.394 -331.189 241.612 -293.15C258.093 -275.346 278.406 -254.267 301.403 -233.306C343.599 -194.789 396.908 -156.237 446.548 -133.044V-133.044Z" stroke="url(#paint15_linear_33_255)" stroke-width="1.5"/>
<path fill-rule="evenodd" clip-rule="evenodd" d="M445.387 -139.296C505.21 -111.087 517.536 -124.292 534.954 -140.388C537.614 -142.972 542.91 -146.968 545.313 -149.284C560.297 -164.025 623.555 -182.796 671.637 -170.692C711.045 -160.831 754.945 -145.287 799.432 -130.178C844.227 -114.933 885.675 -97.8727 914.407 -82.8551C939.898 -69.597 979.55 -61.8365 1024.36 -57.3336C1069.35 -52.8347 1119.01 -51.3276 1167.86 -53.4392C1216.8 -55.6476 1265.57 -62.2109 1308.84 -74.2239C1352.11 -86.2369 1389.29 -103.991 1415.12 -119.524C1441.56 -135.276 1465.58 -173.334 1483.03 -200.683C1504.02 -233.325 1521.16 -259.393 1540.3 -283.985C1577.84 -332.226 1609.66 -384.271 1627.55 -434.172C1632.31 -447.384 1635.68 -460.592 1639.05 -472.402C1655.03 -529.526 1676.38 -555.97 1711.83 -559.137C1714.93 -559.386 1717.93 -559.891 1721.51 -560.097C1725.03 -560.303 1728.73 -560.156 1732.19 -560.465C1752.06 -562.482 1772.51 -569.943 1774.78 -585.826C1775.83 -593.561 1773.25 -602.957 1767.53 -613.222C1765.88 -614.869 1765.07 -620.658 1761.69 -630.988C1754.25 -653.784 1739.43 -690.405 1721.7 -729.52C1716.02 -742.194 1708.63 -755.664 1705.05 -769.12C1701.51 -782.343 1702.04 -795.46 1700.57 -808.29C1697.6 -833.847 1693.45 -859.723 1691.22 -884.608C1689.41 -905.256 1689.86 -925.26 1697.93 -941.59C1701.6 -948.996 1705.25 -955.832 1706.77 -964.478C1708.41 -973.777 1707.74 -983.948 1706.94 -993.603C1705.17 -1015.68 1699.13 -1037.86 1691.69 -1058.59C1684.28 -1079.37 1675.24 -1099.02 1666.5 -1116.93C1651.17 -1148.35 1634.61 -1175.54 1611.17 -1194.73C1587.82 -1213.84 1555.16 -1224.18 1511.8 -1222.2C1457.73 -1219.68 1410.75 -1222.64 1368.66 -1232.16C1326.57 -1241.63 1289.85 -1258.26 1259.14 -1281.63C1232.05 -1301.91 1209.92 -1326.97 1186.7 -1348.21C1163.49 -1369.31 1139.04 -1386.8 1109.52 -1391.78C1080.26 -1396.84 1045.43 -1388.2 1009.21 -1357.07C972.226 -1325.46 925.071 -1285.06 880.994 -1240.09C836.423 -1195.12 795.552 -1146.76 754.746 -1117.2C713.853 -1087.45 669.18 -1081.46 617.223 -1106.06C565.677 -1130.22 511.129 -1168.23 462.671 -1206.23C414.424 -1243.85 372.728 -1280.15 353.084 -1290.97C302.297 -1321.7 300.26 -1262.08 387.502 -1127.99C422.855 -1074.3 462.865 -1022.87 502.555 -977.129C542.337 -931.272 581.825 -891.144 617.699 -856.836C655.001 -821.02 691.937 -790.338 715.274 -763.979C728.144 -749.338 736.328 -737.592 743.596 -727.554C755.373 -711.342 763.18 -696.865 767.37 -684.598C775.331 -661.447 770.649 -643.434 755.516 -629.333C740.418 -615.226 714.632 -605.366 680.487 -599.129C642.396 -592.051 593.022 -589.899 537.213 -589.751C481.617 -589.447 419.553 -591.006 360.63 -588.138C301.838 -585.23 246.49 -577.514 207.374 -558.634C187.364 -549.022 171.002 -536.461 162.018 -521.057C145.472 -492.747 146.871 -455.2 164.881 -413.326C180.091 -377.567 207.551 -338.815 242.143 -300.606C258.39 -282.666 278.407 -261.472 301.137 -240.39C342.8 -201.66 395.762 -162.799 445.387 -139.296V-139.296Z" stroke="url(#paint16_linear_33_255)" stroke-width="1.5"/>
<path fill-rule="evenodd" clip-rule="evenodd" d="M444.205 -145.641C504.003 -117.041 517.611 -129.865 536.33 -145.879C539.14 -148.429 544.923 -152.426 547.447 -154.693C563.217 -169.137 630.377 -187.774 678.635 -176.007C718.267 -166.385 764.261 -151.71 810.648 -137.346C857.361 -122.789 900.68 -106.718 929.367 -92.3605C954.828 -79.659 994.949 -72.6373 1040.44 -69.4895C1086.12 -66.2721 1136.73 -66.5986 1186.25 -70.8856C1235.86 -75.241 1284.95 -84.3149 1327.75 -98.3102C1370.55 -112.314 1406.47 -131.337 1430.87 -147.249C1456.6 -163.837 1479.07 -203.223 1494.87 -230.234C1514.22 -262.924 1529.81 -288.371 1547.76 -311.921C1582.55 -357.594 1612.59 -405.327 1629.39 -452.075C1633.86 -464.509 1636.93 -477.022 1640.08 -488.173C1655.03 -542.041 1677.5 -565.446 1714.41 -566.281C1717.64 -566.325 1720.77 -566.597 1724.5 -566.676C1728.15 -566.778 1731.92 -566.462 1735.47 -566.701C1755.82 -568.16 1776.38 -576.411 1778.34 -592.695C1779.25 -600.602 1776.44 -610.266 1770.47 -620.821C1768.68 -622.602 1767.75 -628.567 1764.13 -639.062C1755.98 -662.674 1740.32 -698.63 1721.92 -737.224C1715.99 -749.743 1708.25 -763.095 1704.68 -776.399C1701.14 -789.494 1701.98 -802.449 1700.7 -815.107C1698.1 -840.405 1694.32 -865.984 1692.7 -890.592C1691.4 -911.03 1692.56 -930.831 1701.9 -946.742C1706.12 -953.915 1710.32 -960.577 1712.3 -969.111C1714.43 -978.279 1714.11 -988.427 1713.66 -998.015C1712.68 -1019.95 1706.57 -1042.08 1699.43 -1062.89C1692.3 -1083.71 1683.45 -1103.39 1674.98 -1121.44C1660.18 -1152.78 1644.16 -1180.02 1621.05 -1199.47C1598.03 -1218.79 1565.66 -1229.5 1521.42 -1227.82C1466.61 -1225.72 1418.87 -1228.97 1376.4 -1238.76C1333.91 -1248.53 1297.19 -1265.6 1266.77 -1289.45C1240.03 -1310.14 1217.83 -1334.97 1194.47 -1356.44C1171.12 -1377.76 1146.52 -1395.51 1116.73 -1401.18C1087.18 -1406.9 1051.83 -1399.34 1014.82 -1369.48C977.073 -1339.17 928.598 -1300.01 883.024 -1255.23C836.997 -1210.52 794.893 -1161.87 753.631 -1131.68C712.244 -1101.29 668.169 -1093.02 616.767 -1117.04C565.759 -1140.63 512.087 -1177.79 464.223 -1215.11C416.567 -1252.14 375.18 -1288.21 354.83 -1300.23C302.691 -1333.62 297.826 -1277.25 382.39 -1143.73C416.553 -1090.45 455.666 -1038.77 494.672 -992.567C533.753 -946.208 572.745 -905.318 608.239 -870.229C645.319 -833.421 682.11 -801.715 705.709 -774.619C718.874 -759.441 727.332 -747.249 734.981 -736.962C747.464 -720.135 755.916 -705.293 761.326 -692.415C771.572 -668.099 768.86 -649.284 755.686 -634.38C742.547 -619.543 718.623 -608.872 686.113 -601.919C649.976 -594.061 602.446 -591.231 548.081 -590.6C493.935 -589.849 432.903 -591.257 374.268 -588.686C315.797 -586.1 259.992 -579.16 219.632 -561.464C198.995 -552.436 181.354 -540.632 171.306 -525.784C152.85 -498.624 152.347 -461.902 168.811 -420.445C182.692 -385.094 209.096 -346.345 242.971 -308.083C258.944 -290.043 278.608 -268.77 301.014 -247.568C342.039 -208.651 394.56 -169.46 444.205 -145.641V-145.641Z" stroke="url(#paint17_linear_33_255)" stroke-width="1.5"/>
<path fill-rule="evenodd" clip-rule="evenodd" d="M443.021 -152.074C502.823 -123.088 517.844 -135.489 537.936 -151.419C540.898 -153.888 547.207 -157.897 549.835 -160.129C566.394 -174.237 637.53 -192.746 685.874 -181.323C725.667 -171.949 773.654 -158.078 821.898 -144.485C870.495 -130.64 915.613 -115.672 944.242 -102.004C969.661 -89.898 1010.21 -83.7598 1056.35 -81.9077C1102.69 -80.0328 1154.17 -82.2245 1204.25 -88.687C1254.44 -95.2522 1303.65 -106.704 1345.82 -122.588C1388.01 -138.45 1422.58 -158.639 1445.5 -174.762C1470.45 -192.098 1491.22 -232.497 1505.38 -258.976C1523.06 -291.588 1537.16 -316.311 1554.05 -338.81C1586.33 -381.947 1614.94 -425.473 1630.85 -469.131C1635.09 -480.799 1637.9 -492.64 1640.87 -503.176C1654.99 -554.034 1678.69 -574.502 1717.09 -573.258C1720.44 -573.097 1723.71 -573.18 1727.57 -573.145C1731.32 -573.083 1735.22 -572.724 1738.84 -572.89C1759.67 -573.946 1780.25 -583.019 1781.91 -599.678C1782.66 -607.785 1779.61 -617.756 1773.39 -628.555C1771.47 -630.497 1770.4 -636.664 1766.53 -647.265C1757.67 -671.688 1741.24 -706.835 1722.15 -744.833C1715.97 -757.238 1707.9 -770.464 1704.31 -783.637C1700.77 -796.649 1701.92 -809.372 1700.84 -821.868C1698.61 -846.929 1695.23 -872.183 1694.24 -896.543C1693.45 -916.793 1695.36 -936.331 1705.96 -951.831C1710.75 -958.802 1715.53 -965.219 1717.97 -973.69C1720.58 -982.715 1721.1 -992.729 1720.54 -1002.36C1719.27 -1024.37 1714.17 -1046.29 1707.31 -1067.13C1700.48 -1087.97 1691.84 -1107.79 1683.6 -1125.9C1669.36 -1157.16 1653.86 -1184.51 1631.08 -1204.19C1608.38 -1223.73 1576.43 -1234.85 1531.33 -1233.47C1475.84 -1231.8 1427.36 -1235.28 1384.52 -1245.4C1341.67 -1255.46 1305.01 -1273.08 1274.84 -1297.23C1248.38 -1318.11 1225.7 -1342.84 1202.21 -1364.48C1178.73 -1385.97 1153.99 -1404.03 1123.95 -1410.33C1094.13 -1416.71 1058.32 -1410.25 1020.54 -1381.62C982.079 -1352.55 932.767 -1314.95 885.672 -1270.44C838.139 -1226 794.791 -1177.18 752.989 -1146.29C711.034 -1115.21 667.513 -1104.59 616.653 -1127.96C566.158 -1150.94 513.292 -1187.16 466.015 -1223.88C418.927 -1260.25 377.853 -1296.2 356.788 -1309.33C303.34 -1345.21 295.52 -1292.39 377.247 -1159.66C410.176 -1106.9 448.353 -1055.02 486.638 -1008.36C524.99 -961.546 563.476 -919.942 598.565 -884.03C635.406 -846.187 672.021 -813.491 695.832 -785.637C709.299 -769.848 718.037 -757.301 726.022 -746.719C739.197 -729.256 748.514 -713.877 754.854 -700.512C766.815 -675.304 766.622 -655.353 755.439 -639.611C744.266 -623.924 722.252 -612.564 691.407 -604.861C657.261 -596.272 611.608 -592.638 558.75 -591.514C506.107 -590.244 446.189 -591.45 387.98 -589.115C329.921 -586.736 273.81 -580.6 232.31 -563.988C211.087 -555.523 193.632 -544.382 181.547 -530.208C159.283 -504.121 158.423 -468.388 173.27 -427.425C185.769 -392.546 211.053 -353.912 244.116 -315.575C259.758 -297.425 279.02 -276.11 301.043 -254.816C341.36 -215.789 393.343 -176.238 443.021 -152.074V-152.074Z" stroke="url(#paint18_linear_33_255)" stroke-width="1.5"/>
<path fill-rule="evenodd" clip-rule="evenodd" d="M441.876 -158.588C501.702 -129.202 518.257 -141.161 539.78 -156.969C542.882 -159.341 549.743 -163.404 552.499 -165.577C569.839 -179.306 645.042 -197.68 693.372 -186.609C733.236 -177.435 783.154 -164.451 833.207 -151.61C883.631 -138.541 930.522 -124.772 959.025 -111.797C984.343 -100.295 1025.33 -95.0577 1072.07 -94.5758C1119 -94.0705 1171.28 -98.1497 1221.78 -106.811C1272.39 -115.52 1321.58 -129.375 1362.97 -146.971C1404.39 -164.56 1437.52 -185.755 1459 -201.976C1483.1 -219.95 1501.99 -260.942 1514.57 -286.85C1530.59 -319.32 1543.28 -343.198 1559.21 -364.636C1589.24 -405.255 1616.75 -444.565 1631.95 -485.334C1636.02 -496.291 1638.6 -507.472 1641.44 -517.416C1654.9 -565.369 1679.87 -583.189 1719.81 -580.084C1723.3 -579.79 1726.71 -579.675 1730.72 -579.532C1734.57 -579.351 1738.57 -578.943 1742.3 -579.082C1763.61 -579.923 1784.12 -589.699 1785.45 -606.788C1786.06 -615.113 1782.75 -625.298 1776.28 -636.429C1774.21 -638.579 1772.96 -644.994 1768.95 -655.604C1759.56 -680.392 1742.14 -714.933 1722.37 -752.362C1715.94 -764.694 1707.53 -777.765 1703.94 -790.8C1700.39 -803.631 1701.89 -816.235 1701 -828.571C1699.16 -853.327 1696.19 -878.315 1695.84 -902.446C1695.59 -922.464 1698.27 -941.849 1710.14 -956.885C1715.53 -963.692 1720.88 -969.893 1723.8 -978.214C1726.93 -987.149 1727.66 -997.133 1727.35 -1006.69C1726.64 -1028.54 1721.92 -1050.46 1715.38 -1071.33C1708.85 -1092.23 1700.43 -1112.08 1692.44 -1130.33C1678.75 -1161.49 1663.81 -1188.97 1641.33 -1208.86C1618.97 -1228.63 1587.53 -1240.21 1541.6 -1239.15C1485.47 -1237.87 1436.3 -1241.59 1393.13 -1252.03C1349.92 -1262.36 1313.6 -1280.54 1283.1 -1304.84C1256.41 -1325.72 1233.6 -1350.51 1209.98 -1372.32C1186.38 -1393.95 1161.53 -1412.33 1131.24 -1419.23C1101.18 -1426.21 1064.92 -1420.93 1026.41 -1393.48C987.261 -1365.68 937.572 -1329.39 889.006 -1285.59C840.013 -1241.87 795.265 -1192.47 752.904 -1160.94C710.315 -1129.15 667.312 -1116.05 616.947 -1138.77C566.922 -1161.15 514.826 -1196.37 468.109 -1232.44C421.584 -1268.22 380.786 -1303.9 359.019 -1318.15C304.345 -1356.46 293.393 -1307.42 372.163 -1175.68C403.783 -1123.44 440.995 -1071.51 478.521 -1024.43C516.112 -977.194 554.039 -934.783 588.709 -898.179C625.292 -859.409 661.706 -825.576 685.707 -796.992C699.437 -780.588 708.455 -767.682 716.758 -756.752C730.604 -738.638 740.767 -722.661 748.004 -708.786C761.638 -682.649 763.946 -661.508 754.787 -644.957C745.632 -628.488 725.529 -616.255 696.398 -607.868C664.265 -598.517 620.514 -594.066 569.242 -592.427C518.156 -590.581 459.463 -591.535 401.763 -589.38C344.233 -587.197 287.925 -581.692 245.404 -566.162C223.658 -558.249 205.472 -547.732 192.463 -534.238C168.515 -509.446 165.1 -474.53 178.285 -434.177C189.354 -399.75 213.457 -361.362 245.616 -323.003C260.88 -304.742 279.683 -283.43 301.281 -262.071C340.776 -222.907 392.147 -183.109 441.876 -158.588V-158.588Z" stroke="url(#paint19_linear_33_255)" stroke-width="1.5"/>
<path fill-rule="evenodd" clip-rule="evenodd" d="M440.817 -165.191C500.681 -135.404 518.89 -146.872 541.891 -162.56C545.161 -164.867 552.591 -168.926 555.448 -171.045C573.558 -184.433 652.884 -202.599 701.101 -191.896C740.973 -182.987 792.724 -170.733 844.528 -158.736C896.736 -146.524 945.343 -133.964 973.701 -121.739C998.9 -110.864 1040.26 -106.593 1087.53 -107.492C1135 -108.394 1187.98 -114.403 1238.79 -125.22C1289.69 -136.083 1338.66 -152.182 1379.15 -171.418C1419.68 -190.565 1451.3 -212.657 1471.32 -228.839C1494.53 -247.413 1511.43 -288.594 1522.47 -313.824C1536.85 -346.018 1548.21 -369.037 1563.29 -389.405C1591.35 -427.545 1618.07 -462.842 1632.76 -500.757C1636.68 -510.953 1639.12 -521.644 1641.83 -530.98C1654.8 -576.236 1681.09 -591.678 1722.59 -586.859C1726.2 -586.36 1729.77 -586.2 1733.91 -585.923C1737.89 -585.679 1741.98 -585.262 1745.8 -585.343C1767.57 -586.067 1787.95 -596.48 1788.98 -614.019C1789.43 -622.555 1785.85 -632.987 1779.14 -644.444C1776.9 -646.779 1775.58 -653.374 1771.39 -663.809C1761.39 -688.736 1743.04 -722.902 1722.6 -759.814C1715.9 -772.017 1707.18 -785.011 1703.59 -797.896C1700.03 -810.613 1701.86 -823.054 1701.18 -835.208C1699.75 -859.662 1697.21 -884.511 1697.51 -908.304C1697.8 -928.116 1701.26 -947.273 1714.47 -961.882C1720.44 -968.443 1726.38 -974.477 1729.78 -982.688C1733.44 -991.473 1734.37 -1001.47 1734.29 -1010.98C1734.13 -1032.68 1729.83 -1054.6 1723.58 -1075.5C1717.37 -1096.44 1709.17 -1116.39 1701.45 -1134.75C1688.32 -1165.85 1673.88 -1193.34 1651.74 -1213.53C1629.7 -1233.55 1598.87 -1245.62 1552.15 -1244.88C1495.45 -1243.99 1445.6 -1247.93 1402.12 -1258.69C1358.6 -1269.38 1322.1 -1287.94 1291.27 -1312.37C1264.37 -1333.3 1241.45 -1358.17 1217.71 -1380.06C1194 -1401.88 1169.05 -1420.47 1138.53 -1427.94C1108.26 -1435.5 1071.6 -1431.34 1032.38 -1405.1C992.56 -1378.55 942.143 -1343.36 892.736 -1300.38C842.872 -1257.43 796.374 -1207.91 753.361 -1175.7C710.107 -1143.29 667.444 -1129.59 617.64 -1149.63C568.121 -1169.34 516.676 -1205.46 470.504 -1240.83C424.494 -1275.96 383.966 -1311.34 361.522 -1326.75C305.699 -1367.35 291.482 -1322.3 367.131 -1191.81C397.413 -1140.27 433.596 -1088.29 470.321 -1040.82C507.127 -993.257 544.46 -950.129 578.678 -912.76C614.968 -872.932 651.168 -838.129 675.328 -808.773C689.321 -791.747 698.571 -778.364 707.199 -767.182C721.698 -748.356 732.686 -731.795 740.784 -717.361C756.031 -690.161 760.824 -667.954 753.723 -650.528C746.603 -633.178 728.463 -620.163 701.075 -611.018C670.979 -600.86 629.184 -595.638 579.541 -593.411C530.092 -591.033 472.669 -591.556 415.591 -589.549C358.686 -587.504 302.299 -582.532 258.872 -568.037C236.658 -560.616 217.805 -550.781 203.909 -537.915C178.362 -514.348 172.448 -480.442 183.868 -440.736C193.501 -406.901 216.313 -368.702 247.499 -330.406C262.342 -312.096 280.647 -290.749 301.755 -269.371C340.372 -230.181 391.013 -190.084 440.817 -165.191V-165.191Z" stroke="url(#paint20_linear_33_255)" stroke-width="1.5"/>
<path fill-rule="evenodd" clip-rule="evenodd" d="M439.862 -171.878C499.777 -141.705 519.752 -152.692 544.271 -168.17C547.687 -170.443 555.705 -174.449 558.673 -176.522C577.535 -189.516 661.052 -207.49 709.057 -197.164C748.865 -188.531 802.353 -176.931 855.877 -165.876C909.822 -154.529 960.073 -143.355 988.248 -131.841C1013.29 -121.608 1054.99 -118.254 1102.74 -120.643C1150.67 -122.965 1204.27 -130.939 1255.22 -143.882C1306.27 -156.825 1354.86 -175.184 1394.33 -195.833C1433.84 -216.43 1463.87 -239.193 1482.5 -255.288C1504.76 -274.345 1519.6 -315.329 1529.2 -339.875C1541.95 -371.701 1552.09 -393.849 1566.43 -413.12C1592.8 -448.826 1619.03 -480.162 1633.35 -515.417C1637.18 -524.917 1639.47 -535.036 1642.11 -543.864C1654.73 -586.538 1682.37 -599.908 1725.44 -593.62C1729.19 -593.035 1732.92 -592.718 1737.21 -592.371C1741.31 -592.075 1745.48 -591.648 1749.38 -591.743C1771.63 -592.532 1791.83 -603.372 1792.52 -621.387C1792.81 -630.133 1788.95 -641.032 1782.07 -652.612C1779.7 -655.098 1778.24 -661.631 1773.87 -671.907C1763.25 -696.92 1743.97 -730.784 1722.85 -767.208C1715.89 -779.298 1706.84 -792.201 1703.25 -804.956C1699.69 -817.577 1701.87 -829.837 1701.4 -841.826C1700.38 -866.057 1698.28 -890.581 1699.26 -914.145C1700.12 -933.768 1704.39 -952.696 1718.93 -966.86C1725.53 -973.275 1732.03 -978.997 1735.97 -987.119C1740.17 -995.786 1741.21 -1005.72 1741.4 -1015.22C1741.85 -1036.82 1737.93 -1058.62 1732.02 -1079.63C1726.12 -1100.57 1718.16 -1120.71 1710.71 -1139.14C1698.11 -1170.12 1684.22 -1197.78 1662.4 -1218.19C1640.69 -1238.47 1610.53 -1251.13 1563.07 -1250.67C1505.83 -1250.15 1455.36 -1254.36 1411.6 -1265.38C1367.76 -1276.32 1330.61 -1295.27 1299.47 -1319.8C1272.35 -1340.72 1249.33 -1365.64 1225.48 -1387.67C1201.66 -1409.61 1176.61 -1428.42 1145.91 -1436.46C1115.44 -1444.54 1078.4 -1441.5 1038.51 -1416.48C998.048 -1391.18 946.967 -1357.09 896.739 -1314.93C846.068 -1272.82 798.173 -1223.4 754.466 -1190.54C710.49 -1157.5 667.862 -1142.48 618.791 -1160.54C569.983 -1178.26 518.95 -1214.4 473.271 -1249.09C427.756 -1283.51 387.499 -1318.69 364.391 -1335.13C307.474 -1377.85 289.881 -1337 362.253 -1208.04C391.136 -1157.23 426.246 -1105.3 462.138 -1057.53C498.099 -1009.67 534.831 -965.842 568.571 -927.758C604.546 -887.019 640.501 -851.117 664.785 -820.996C679.015 -803.305 688.511 -789.527 697.421 -777.999C712.547 -758.428 724.346 -741.248 733.285 -726.241C750.119 -698.047 757.32 -674.639 752.308 -656.304C747.265 -638.057 731.097 -624.251 705.484 -614.333C677.44 -603.402 637.627 -597.34 589.672 -594.498C541.9 -591.487 485.854 -591.618 429.492 -589.661C373.308 -587.618 316.994 -583.217 272.755 -569.658C250.137 -562.728 230.653 -553.45 215.945 -541.272C188.882 -518.935 180.422 -486.092 190.1 -447.121C198.24 -413.859 219.743 -376.019 249.856 -337.793C264.255 -319.522 281.987 -298.125 302.575 -276.715C340.165 -237.486 389.97 -197.117 439.862 -171.878V-171.878Z" stroke="url(#paint21_linear_33_255)" stroke-width="1.5"/>
<path fill-rule="evenodd" clip-rule="evenodd" d="M439.067 -178.628C499.032 -148.052 520.854 -158.489 546.944 -173.802C550.497 -175.96 559.159 -180.023 562.211 -182.018C581.801 -194.595 669.543 -212.335 717.24 -202.418C756.924 -194.055 812.057 -183.115 867.244 -173.029C922.875 -162.639 974.691 -152.846 1002.64 -142.105C1027.49 -132.576 1069.49 -130.145 1117.65 -134.019C1165.98 -137.799 1220.07 -147.758 1271.02 -162.75C1322.1 -177.766 1370.12 -198.213 1408.45 -220.175C1446.84 -242.155 1475.26 -265.376 1492.47 -281.276C1513.73 -300.704 1526.53 -341.244 1534.74 -365.003C1545.92 -396.378 1554.91 -417.635 1568.63 -435.815C1593.56 -469.19 1619.61 -496.687 1633.74 -529.357C1637.52 -538.204 1639.69 -547.8 1642.27 -556.132C1654.67 -596.416 1683.66 -607.979 1728.34 -600.437C1732.22 -599.764 1736.11 -599.283 1740.55 -598.939C1744.76 -598.56 1749.12 -597.899 1752.97 -598.582C1774.87 -602.665 1795.69 -610.366 1796.05 -628.878C1796.19 -637.851 1792.14 -649.103 1785.03 -660.622C1782.51 -663.225 1780.92 -669.769 1776.39 -679.844C1765.12 -704.986 1744.89 -738.603 1723.1 -774.507C1715.89 -786.512 1706.52 -799.276 1702.93 -811.92C1699.37 -824.394 1701.91 -836.519 1701.66 -848.352C1701.08 -872.317 1699.43 -896.627 1701.1 -919.908C1702.55 -939.341 1707.64 -958.075 1723.54 -971.761C1730.76 -977.943 1737.87 -983.48 1742.33 -991.468C1747.09 -999.966 1748.2 -1009.96 1748.65 -1019.39C1749.7 -1040.84 1746.22 -1062.69 1740.64 -1083.7C1735.07 -1104.69 1727.35 -1124.91 1720.15 -1143.49C1708.11 -1174.41 1694.73 -1202.13 1673.24 -1222.8C1651.82 -1243.32 1621.33 -1256.71 1574.26 -1256.5C1516.72 -1256.24 1465.5 -1260.78 1421.49 -1272.07C1377.36 -1283.24 1339.04 -1302.48 1307.6 -1327.11C1280.29 -1348.12 1257.15 -1372.96 1233.22 -1395.14C1209.31 -1417.16 1184.17 -1436.21 1153.3 -1444.77C1122.64 -1453.39 1085.25 -1451.4 1044.73 -1427.61C1003.66 -1403.53 951.933 -1370.52 900.945 -1329.19C849.527 -1287.9 800.664 -1238.93 756.181 -1205.39C711.414 -1171.67 668.773 -1155.4 620.361 -1171.46C572.213 -1187.2 521.598 -1223.12 476.392 -1257.14C431.341 -1290.84 391.355 -1325.73 367.585 -1343.2C309.668 -1387.83 288.576 -1351.44 357.518 -1224.24C384.953 -1174.3 418.931 -1122.5 453.93 -1074.47C488.998 -1026.3 525.088 -981.885 558.314 -943.125C593.929 -901.389 629.609 -864.458 653.989 -833.596C668.443 -815.242 678.162 -801.049 687.343 -789.163C703.079 -768.846 715.615 -750.999 725.421 -735.359C743.88 -705.899 753.441 -681.449 750.528 -662.209C747.571 -643.032 733.356 -628.491 709.542 -617.738C683.572 -605.97 645.777 -599.126 599.549 -595.626C553.51 -591.965 498.896 -591.596 443.364 -589.655C387.992 -587.577 331.853 -583.615 286.94 -570.96C263.988 -564.5 243.927 -555.816 228.443 -544.237C199.967 -523.057 189.007 -491.518 196.896 -453.225C203.515 -420.643 223.66 -383.142 252.643 -345.052C266.547 -326.735 283.697 -305.482 303.697 -284.024C340.203 -244.849 389.076 -204.187 439.067 -178.628V-178.628Z" stroke="url(#paint22_linear_33_255)" stroke-width="1.5"/>
<path fill-rule="evenodd" clip-rule="evenodd" d="M438.428 -185.454C498.427 -154.421 522.187 -164.311 549.89 -179.436C553.582 -181.543 562.884 -185.534 566.036 -187.493C586.323 -199.623 678.325 -217.122 725.618 -207.641C765.083 -199.536 821.825 -189.307 878.592 -180.205C935.848 -170.782 989.179 -162.507 1016.86 -152.519C1041.47 -143.628 1083.74 -142.282 1132.21 -147.592C1180.87 -152.85 1235.33 -164.751 1286.13 -181.78C1337.08 -198.795 1384.4 -221.227 1421.5 -244.361C1458.66 -267.485 1485.5 -291.486 1501.3 -306.697C1521.47 -325.859 1532.34 -366.236 1539.22 -389.153C1548.85 -419.961 1556.83 -440.332 1570.06 -457.474C1593.78 -488.571 1619.95 -512.411 1633.96 -542.59C1637.74 -550.83 1639.81 -559.92 1642.36 -567.788C1654.66 -605.839 1684.98 -615.89 1731.3 -607.354C1735.32 -606.594 1739.36 -606.042 1743.95 -605.672C1748.27 -605.312 1752.6 -605.325 1756.46 -605.961C1778.44 -609.8 1799.56 -617.562 1799.61 -636.494C1799.57 -645.655 1795.39 -656.974 1788.05 -668.495C1785.37 -671.199 1783.65 -677.728 1778.95 -687.666C1767.01 -712.974 1745.83 -746.313 1723.38 -781.757C1715.9 -793.623 1706.22 -806.321 1702.64 -818.862C1699.07 -831.181 1701.99 -843.188 1701.96 -854.873C1701.84 -878.604 1700.64 -902.663 1703.04 -925.68C1705.09 -944.896 1711.02 -963.46 1728.33 -976.648C1736.18 -982.627 1743.91 -987.936 1748.9 -995.784C1754.22 -1004.14 1755.36 -1014.15 1756.08 -1023.52C1757.74 -1044.86 1754.71 -1066.73 1749.46 -1087.75C1744.24 -1108.81 1736.75 -1129.11 1729.83 -1147.84C1718.36 -1178.7 1705.47 -1206.48 1684.31 -1227.41C1663.24 -1248.21 1633.16 -1262.1 1585.61 -1262.41C1528.94 -1262.78 1477.08 -1267.04 1431.69 -1278.84C1386.23 -1290.65 1347.49 -1309.69 1315.72 -1334.39C1288.2 -1355.39 1264.99 -1380.27 1240.97 -1402.54C1216.98 -1424.67 1191.77 -1443.9 1160.74 -1452.94C1129.91 -1462.02 1092.22 -1461.13 1051.07 -1438.48C1009.41 -1415.61 957.099 -1383.73 905.383 -1343.21C853.274 -1302.76 803.728 -1254.67 758.534 -1220.34C713.077 -1185.88 670.214 -1168.37 622.384 -1182.41C574.823 -1196.13 524.656 -1231.73 479.884 -1265C435.281 -1298.01 395.538 -1332.54 371.143 -1350.99C312.313 -1397.4 287.628 -1365.62 352.967 -1240.45C378.905 -1191.47 411.688 -1139.87 445.772 -1091.67C479.9 -1043.35 515.313 -998.347 547.994 -958.889C583.215 -916.182 618.609 -878.316 643.034 -846.636C657.688 -827.642 667.615 -812.937 677.054 -800.731C693.374 -779.627 706.681 -761.089 717.287 -744.799C737.256 -714.156 749.033 -688.617 748.275 -668.37C747.458 -648.207 735.273 -632.791 713.308 -621.285C689.44 -608.684 653.682 -601.056 609.236 -596.842C564.969 -592.487 511.87 -591.624 457.244 -589.604C402.802 -587.479 346.934 -583.875 301.449 -572.025C278.214 -566.017 257.647 -557.84 241.447 -546.897C211.659 -526.876 198.22 -496.6 204.314 -459.106C209.38 -427.181 228.144 -390.152 255.932 -352.254C269.304 -333.944 285.822 -312.761 305.203 -291.333C340.512 -252.25 388.371 -211.41 438.428 -185.454V-185.454Z" stroke="url(#paint23_linear_33_255)" stroke-width="1.5"/>
<path fill-rule="evenodd" clip-rule="evenodd" d="M437.999 -192.336C498.035 -160.92 523.813 -170.185 553.151 -185.089C556.969 -187.129 566.942 -191.062 570.187 -192.978C591.153 -204.717 687.422 -221.902 734.2 -212.857C773.38 -205.029 831.646 -195.49 889.958 -187.405C948.782 -179.004 1003.54 -172.291 1030.9 -163.1C1055.25 -154.878 1097.71 -154.547 1146.42 -161.352C1195.31 -168.043 1250.02 -181.968 1300.54 -200.92C1351.22 -219.891 1397.65 -244.126 1433.45 -268.327C1469.3 -292.498 1494.43 -316.742 1508.96 -331.367C1528.15 -350.464 1537.02 -390.269 1542.7 -412.35C1550.86 -442.625 1557.91 -462.068 1570.75 -478.136C1593.52 -507.014 1620.03 -527.267 1634.09 -555.168C1637.88 -562.828 1639.88 -571.459 1642.41 -578.891C1654.7 -614.902 1686.29 -623.693 1734.29 -614.451C1738.61 -613.578 1742.99 -612.979 1747.39 -612.656C1751.82 -612.313 1756.02 -612.845 1759.93 -613.446C1782.01 -617.12 1803.27 -624.968 1803.22 -644.285C1803.13 -653.628 1798.65 -664.751 1791.1 -676.234C1788.26 -679.102 1786.39 -685.537 1781.52 -695.356C1768.92 -720.818 1746.78 -753.964 1723.65 -788.916C1715.91 -800.734 1705.91 -813.348 1702.33 -825.714C1698.79 -837.983 1702.07 -849.772 1702.27 -861.313C1702.61 -884.802 1701.89 -908.614 1705.02 -931.378C1707.68 -950.413 1714.52 -968.743 1733.23 -981.482C1741.74 -987.217 1750.42 -992.218 1755.51 -1000.06C1760.92 -1008.43 1762.63 -1018.29 1763.64 -1027.6C1765.95 -1048.8 1763.36 -1070.63 1758.47 -1091.76C1753.59 -1112.91 1746.36 -1133.31 1739.71 -1152.14C1728.77 -1182.96 1716.4 -1210.84 1695.57 -1232C1674.81 -1253.07 1644.91 -1267.38 1597.14 -1268.32C1540.58 -1269.44 1487.67 -1273.88 1441.42 -1285.78C1395.1 -1297.7 1355.83 -1316.83 1323.75 -1341.62C1296.04 -1362.6 1272.75 -1387.51 1248.66 -1409.87C1224.59 -1432.12 1199.33 -1451.48 1168.16 -1460.97C1137.18 -1470.48 1099.2 -1470.59 1057.46 -1449.15C1015.22 -1427.48 962.373 -1396.69 909.968 -1356.99C857.192 -1317.38 806.801 -1269.83 761.193 -1235.29C715.279 -1200.57 672.123 -1181.32 624.846 -1193.41C577.812 -1205.13 528.09 -1240.21 483.736 -1272.68C439.544 -1304.91 400.03 -1339.06 375.048 -1358.49C315.388 -1406.48 287.01 -1379.39 348.596 -1256.6C372.982 -1208.66 404.523 -1157.43 437.617 -1109.08C470.756 -1060.62 505.437 -1015.09 537.54 -975.043C572.332 -931.48 607.393 -892.567 631.838 -860.131C646.668 -840.436 656.804 -825.337 666.469 -812.725C683.36 -790.808 697.38 -771.489 708.779 -754.56C730.222 -722.685 744.096 -696.066 745.523 -674.771C746.896 -653.586 736.757 -637.329 716.664 -624.992C694.91 -611.575 661.218 -603.066 618.606 -598.175C576.173 -593.143 524.644 -591.722 471.017 -589.524C417.57 -587.194 362.109 -583.881 316.183 -572.849C292.706 -567.203 271.708 -559.577 254.846 -549.233C223.849 -530.326 208.006 -501.383 212.271 -464.758C215.793 -433.589 233.112 -397.043 259.652 -359.374C272.473 -341.175 288.318 -320.032 307.027 -298.654C341.142 -259.689 387.881 -218.633 437.999 -192.336V-192.336Z" stroke="url(#paint24_linear_33_255)" stroke-width="1.5"/>
<path fill-rule="evenodd" clip-rule="evenodd" d="M437.814 -199.26C497.853 -167.431 525.721 -176.067 556.718 -190.719C560.668 -192.673 571.33 -196.609 574.653 -198.439C596.238 -209.651 696.792 -226.636 742.973 -218.032C781.796 -210.476 841.519 -201.574 901.3 -194.647C961.621 -187.326 1017.72 -182.261 1044.73 -173.82C1068.76 -166.294 1111.37 -167.022 1160.22 -175.274C1209.26 -183.466 1264.09 -199.255 1314.19 -220.133C1364.44 -240.94 1409.87 -266.982 1444.29 -292.011C1478.77 -317.121 1502.18 -341.288 1515.53 -355.276C1533.77 -374.184 1540.71 -413.349 1545.26 -434.582C1552 -464.196 1558.24 -482.811 1570.81 -497.822C1592.86 -524.607 1619.93 -541.399 1634.12 -567.12C1637.96 -574.201 1639.9 -582.411 1642.44 -589.472C1654.8 -623.653 1687.59 -631.478 1737.3 -621.793C1741.6 -620.919 1746.02 -620.147 1750.77 -620.255C1755.16 -620.352 1759.46 -620.455 1763.39 -621.06C1785.59 -624.523 1807.25 -632.809 1806.92 -651.98C1806.7 -661.252 1801.98 -672.36 1794.2 -683.854C1791.18 -686.871 1789.18 -693.284 1784.14 -702.956C1770.84 -728.633 1747.74 -761.504 1723.96 -796.043C1715.97 -807.783 1705.63 -820.289 1702.08 -832.54C1698.53 -844.694 1702.2 -856.363 1702.65 -867.729C1703.46 -890.945 1703.25 -914.561 1707.13 -937.066C1710.43 -955.914 1718.18 -974.031 1738.34 -986.255C1747.5 -991.788 1756.62 -996.615 1762.16 -1004.34C1768.06 -1012.54 1770.11 -1022.4 1771.39 -1031.64C1774.36 -1052.68 1772.24 -1074.57 1767.71 -1095.74C1763.19 -1116.9 1756.2 -1137.48 1749.83 -1156.43C1739.44 -1187.18 1727.57 -1215.15 1707.05 -1236.58C1686.61 -1257.85 1656.89 -1272.62 1608.95 -1274.23C1552.51 -1276.16 1498.21 -1280.69 1451.12 -1292.7C1403.92 -1304.79 1364.12 -1323.91 1331.78 -1348.82C1303.89 -1369.83 1280.52 -1394.68 1256.37 -1417.13C1232.24 -1439.41 1206.93 -1458.98 1175.62 -1468.86C1144.51 -1478.77 1106.28 -1479.89 1063.97 -1459.59C1021.19 -1439.12 967.82 -1409.33 914.773 -1370.51C861.365 -1331.73 810.191 -1284.83 764.14 -1250.06C717.755 -1215.1 674.65 -1194.42 627.832 -1204.43C581.245 -1214.12 531.979 -1248.47 488.024 -1280.19C444.227 -1311.67 404.945 -1345.39 379.373 -1365.68C318.979 -1415.09 286.844 -1392.81 344.503 -1272.67C390.347 -1178.24 464.435 -1071.98 527.075 -991.586C561.384 -947.121 596.078 -907.231 620.504 -874.082C635.496 -853.716 645.809 -838.082 655.697 -825.157C673.134 -802.394 687.862 -782.312 700.033 -764.674C722.908 -731.482 738.718 -703.811 742.38 -681.431C745.962 -659.129 737.923 -642.022 719.731 -628.859C700.109 -614.624 668.504 -605.303 627.763 -599.628C587.189 -593.851 537.308 -591.848 484.768 -589.448C432.412 -586.935 377.461 -583.811 331.203 -573.479C307.569 -568.209 286.172 -561 268.709 -551.289C236.606 -533.451 218.429 -505.876 220.874 -470.174C222.85 -439.761 238.697 -403.748 263.931 -366.4C276.154 -348.248 291.312 -327.229 309.323 -305.959C342.125 -267.115 387.65 -225.942 437.814 -199.26V-199.26Z" stroke="url(#paint25_linear_33_255)" stroke-width="1.5"/>
<path fill-rule="evenodd" clip-rule="evenodd" d="M437.901 -206.237C497.914 -174.008 527.939 -181.968 560.611 -196.365C564.665 -198.227 576.042 -202.099 579.432 -203.889C601.607 -214.68 706.431 -231.314 751.913 -223.195C790.316 -215.93 851.427 -207.685 912.609 -201.928C974.362 -195.744 1031.71 -192.38 1058.32 -184.705C1081.99 -177.828 1124.68 -179.609 1173.58 -189.359C1222.67 -198.993 1277.49 -216.734 1327.03 -239.389C1376.73 -262.016 1421.01 -289.564 1454 -315.378C1487.05 -341.227 1508.75 -365.073 1521.03 -378.416C1538.36 -397.008 1543.43 -435.531 1546.95 -455.873C1552.34 -484.786 1557.87 -502.529 1570.28 -516.546C1591.82 -541.331 1619.67 -554.786 1634.08 -578.464C1637.99 -585.002 1639.91 -592.875 1642.46 -599.558C1654.93 -632.02 1688.9 -639.444 1740.3 -629.418C1744.76 -628.492 1749.24 -628.158 1754.07 -628.125C1758.53 -628.118 1762.86 -628.215 1766.81 -628.761C1789.12 -632.049 1811.24 -640.424 1810.65 -659.5C1810.3 -668.695 1805.32 -679.836 1797.33 -691.329C1794.14 -694.45 1791.99 -700.896 1786.79 -710.42C1772.78 -736.277 1748.71 -769.012 1724.28 -803.082C1716 -814.747 1705.34 -827.136 1701.82 -839.301C1698.3 -851.345 1702.36 -862.873 1703.05 -874.088C1704.37 -897.089 1704.66 -920.456 1709.32 -942.711C1713.29 -961.35 1721.95 -979.289 1743.6 -991.015C1753.44 -996.348 1762.91 -1000.9 1768.95 -1008.58C1775.33 -1016.63 1777.73 -1026.42 1779.32 -1035.64C1782.97 -1056.55 1781.33 -1078.44 1777.16 -1099.68C1773.01 -1120.92 1766.27 -1141.64 1760.18 -1160.71C1750.33 -1191.41 1738.95 -1219.47 1718.75 -1241.14C1698.62 -1262.66 1669.1 -1277.87 1621.02 -1280.13C1564.73 -1282.84 1508.72 -1287.42 1460.77 -1299.6C1412.69 -1311.8 1372.41 -1331.07 1339.76 -1356C1311.7 -1377.02 1288.29 -1401.89 1264.07 -1424.34C1239.89 -1446.69 1214.54 -1466.33 1183.11 -1476.64C1151.87 -1486.92 1113.44 -1488.93 1070.58 -1469.79C1027.29 -1450.52 973.427 -1421.77 919.777 -1383.78C865.784 -1345.84 813.847 -1299.54 767.358 -1264.62C720.537 -1229.58 677.615 -1207.7 631.335 -1215.5C585.283 -1222.96 536.358 -1256.56 492.758 -1287.5C449.326 -1318.14 410.264 -1351.42 384.152 -1372.55C323.101 -1423.13 287.136 -1405.71 340.713 -1288.57C383.213 -1196.7 455.215 -1089.9 516.588 -1008.48C550.368 -963.22 584.662 -922.369 609.034 -888.466C624.158 -867.407 634.638 -851.295 644.73 -838.005C662.693 -814.381 678.1 -793.477 691.012 -775.107C715.282 -740.596 732.862 -711.863 738.781 -688.322C744.635 -664.884 738.7 -646.907 722.445 -632.857C704.97 -617.727 675.47 -607.592 636.644 -601.171C597.971 -594.622 549.8 -592.028 498.424 -589.331C447.245 -586.555 392.914 -583.511 346.432 -573.868C322.686 -568.911 300.966 -562.188 282.96 -553.011C249.858 -536.177 229.451 -510.09 230.071 -475.284C230.491 -445.722 244.859 -410.261 268.755 -373.259C280.373 -355.226 294.798 -334.387 312.074 -313.176C343.477 -274.531 387.706 -233.255 437.897 -206.238L437.901 -206.237Z" stroke="url(#paint26_linear_33_255)" stroke-width="1.5"/>
<path fill-rule="evenodd" clip-rule="evenodd" d="M438.279 -213.244C498.236 -180.601 530.472 -187.885 564.828 -201.998C568.986 -203.769 581.098 -207.637 584.545 -209.326C607.251 -219.558 716.333 -236.025 761.013 -228.327C798.92 -221.338 861.371 -213.787 923.881 -209.258C986.992 -204.26 1045.48 -202.642 1071.66 -195.748C1094.94 -189.57 1137.65 -192.397 1186.51 -203.586C1235.56 -214.671 1290.23 -234.31 1339.07 -258.646C1388.09 -282.996 1431.11 -311.952 1462.63 -338.38C1494.19 -364.839 1514.27 -388.131 1525.56 -400.777C1542.04 -419.052 1545.3 -456.715 1547.89 -476.249C1552.02 -504.446 1556.94 -521.335 1569.29 -534.38C1590.49 -557.253 1619.35 -567.58 1634.04 -589.291C1638.04 -595.334 1639.94 -602.854 1642.51 -609.231C1655.13 -640.177 1690.36 -646.663 1743.31 -637.459C1747.96 -636.652 1752.66 -636.213 1757.37 -636.146C1761.9 -636.072 1766.26 -636.099 1770.25 -636.621C1792.68 -639.732 1815.33 -647.935 1814.46 -666.911C1813.97 -676.064 1808.74 -687.221 1800.52 -698.716C1797.16 -702.02 1794.85 -708.402 1789.49 -717.816C1774.74 -743.875 1749.72 -776.454 1724.62 -810.084C1716.08 -821.634 1705.1 -833.989 1701.6 -846.03C1698.11 -857.959 1702.56 -869.357 1703.5 -880.434C1705.32 -903.171 1706.15 -926.324 1711.62 -948.349C1716.28 -966.794 1725.9 -984.494 1749.06 -995.731C1759.59 -1000.82 1769.37 -1005.26 1775.9 -1012.78C1782.78 -1020.7 1785.54 -1030.44 1787.43 -1039.61C1791.77 -1060.39 1790.62 -1082.28 1786.83 -1103.61C1783.04 -1124.92 1776.56 -1145.75 1770.76 -1164.97C1761.44 -1195.62 1750.53 -1223.77 1730.65 -1245.71C1710.84 -1267.5 1681.58 -1283.12 1633.34 -1286.05C1577.17 -1289.56 1519.15 -1294.24 1470.35 -1306.54C1421.37 -1318.85 1380.59 -1338.24 1347.68 -1363.2C1319.49 -1384.22 1295.99 -1409.04 1271.73 -1431.56C1247.51 -1453.95 1222.14 -1473.69 1190.6 -1484.34C1159.26 -1495 1120.63 -1497.83 1077.23 -1479.83C1033.43 -1461.7 979.129 -1434.02 924.894 -1396.85C870.354 -1359.8 817.702 -1314.08 770.774 -1279.04C723.517 -1243.85 680.566 -1221.08 635.019 -1226.77C589.681 -1232.09 541.18 -1264.55 497.9 -1294.67C454.811 -1324.48 415.957 -1357.27 389.329 -1379.13C327.723 -1430.73 287.864 -1418.15 337.199 -1304.32C376.248 -1215.23 446.028 -1108.15 506.053 -1025.76C539.252 -979.756 573.103 -937.973 597.381 -903.346C612.62 -881.578 623.251 -864.999 633.519 -851.33C651.969 -826.807 668.048 -805.035 681.693 -785.945C707.319 -750.047 726.458 -720.316 734.687 -695.54C742.851 -670.839 739.051 -651.923 724.776 -637.053C709.469 -621.051 682.088 -610.045 645.216 -602.871C608.48 -595.574 562.05 -592.236 511.933 -589.271C462.005 -586.174 408.411 -583.245 361.822 -574.116C338.027 -569.443 316.048 -563.168 297.552 -554.496C263.562 -538.63 241.01 -513.943 239.82 -480.177C238.703 -451.472 251.569 -416.641 274.089 -380.036C285.062 -362.103 298.752 -341.479 315.267 -320.388C345.247 -281.974 388.088 -240.637 438.279 -213.244V-213.244Z" stroke="url(#paint27_linear_33_255)" stroke-width="1.5"/>
<path fill-rule="evenodd" clip-rule="evenodd" d="M438.97 -220.282C498.829 -187.224 533.316 -193.798 569.354 -207.609C573.6 -209.301 586.455 -213.107 589.948 -214.742C613.14 -224.479 726.442 -240.657 770.238 -233.439C807.584 -226.72 871.331 -219.933 935.092 -216.636C999.482 -212.875 1059 -213.033 1084.7 -206.924C1107.55 -201.364 1150.21 -205.272 1198.93 -217.93C1247.83 -230.445 1302.21 -251.889 1350.24 -277.859C1398.45 -303.825 1440.13 -334.065 1470.15 -360.938C1500.21 -387.879 1518.76 -410.401 1529.14 -422.308C1544.86 -440.189 1546.4 -477.009 1548.13 -495.687C1551.07 -523.129 1555.47 -539.196 1567.85 -551.298C1588.92 -572.328 1618.92 -579.65 1633.96 -599.565C1638.07 -605.158 1639.97 -612.366 1642.56 -618.472C1655.35 -648.15 1692.42 -654.362 1746.24 -645.968C1750.89 -645.22 1755.58 -644.42 1760.63 -644.249C1765.21 -644.074 1769.63 -644.082 1773.66 -644.571C1796.24 -647.537 1819.43 -655.27 1818.29 -674.174C1817.67 -683.33 1812.16 -694.487 1803.71 -705.975C1800.19 -709.391 1797.7 -715.748 1792.19 -725.084C1776.7 -751.398 1750.7 -783.806 1724.97 -817.006C1716.16 -828.518 1704.86 -840.706 1701.39 -852.677C1697.91 -864.476 1702.8 -875.764 1703.99 -886.692C1706.33 -909.182 1707.71 -932.127 1714.01 -953.902C1719.35 -972.171 1730.63 -989.459 1754.56 -1000.39C1765.43 -1005.35 1775.96 -1009.49 1782.99 -1016.9C1790.39 -1024.69 1793.51 -1034.34 1795.73 -1043.5C1800.79 -1064.17 1800.15 -1086.06 1796.73 -1107.45C1793.32 -1128.84 1787.09 -1149.77 1781.56 -1169.18C1772.77 -1199.78 1762.33 -1228.02 1742.76 -1250.21C1723.26 -1272.24 1694.58 -1288.36 1645.72 -1291.92C1589.15 -1296.21 1529.56 -1301.08 1479.85 -1313.44C1429.98 -1325.88 1388.73 -1345.38 1355.53 -1370.37C1327.19 -1391.38 1303.66 -1416.2 1279.37 -1438.71C1255.1 -1461.13 1229.72 -1480.97 1198.08 -1491.92C1166.63 -1502.86 1127.86 -1506.51 1083.93 -1489.62C1039.64 -1472.62 984.927 -1445.98 930.156 -1409.63C875.094 -1373.41 821.764 -1328.34 774.418 -1293.24C726.723 -1257.98 683.716 -1234.34 638.812 -1237.98C594.109 -1241.29 546.464 -1272.45 503.492 -1301.62C460.699 -1330.54 422.062 -1362.8 394.95 -1385.35C332.871 -1437.63 289.099 -1430 334.01 -1319.78C369.522 -1233.66 436.917 -1126.58 495.506 -1043.3C528.067 -996.589 561.436 -953.909 585.591 -918.609C600.912 -896.157 611.681 -879.086 622.113 -865.03C641.044 -839.571 657.756 -816.977 672.107 -797.059C699.04 -759.645 719.507 -729.02 730.078 -702.976C740.593 -677.042 739.002 -657.083 726.721 -641.316C713.606 -624.467 688.376 -612.619 653.464 -604.61C618.7 -596.502 574.094 -592.535 525.291 -589.138C476.689 -585.67 423.92 -582.73 377.341 -574.096C353.555 -569.67 331.367 -563.761 312.44 -555.612C277.678 -540.648 253.114 -517.486 250.129 -484.684C247.487 -456.861 258.865 -422.74 279.958 -386.559C290.284 -368.819 303.192 -348.354 318.916 -327.424C347.458 -289.362 388.823 -247.99 438.97 -220.282V-220.282Z" stroke="url(#paint28_linear_33_255)" stroke-width="1.5"/>
<path fill-rule="evenodd" clip-rule="evenodd" d="M440.013 -227.335C499.749 -193.949 536.501 -199.709 574.217 -213.2C578.55 -214.804 592.16 -218.566 595.684 -220.113C619.313 -229.335 736.773 -245.208 779.602 -238.52C816.318 -232.155 881.307 -226.032 946.236 -224.073C1011.84 -221.578 1072.28 -223.665 1097.45 -218.254C1119.84 -213.349 1162.37 -218.336 1210.84 -232.378C1259.51 -246.292 1313.47 -269.525 1360.56 -296.996C1407.85 -324.45 1448.09 -355.814 1476.62 -383.05C1505.16 -410.319 1522.33 -431.862 1531.89 -443.043C1546.89 -460.429 1546.83 -496.436 1547.77 -514.243C1549.62 -540.904 1553.6 -556.233 1566.1 -567.379C1587.18 -586.689 1618.49 -591.116 1633.91 -609.377C1638.16 -614.552 1640.02 -621.46 1642.65 -627.349C1649.13 -641.761 1661.63 -649.735 1679.54 -654.039C1697.44 -658.338 1721.3 -660.416 1749.13 -654.667C1753.92 -653.666 1758.73 -652.782 1763.9 -652.49C1768.57 -652.216 1773.02 -652.201 1777.11 -652.651C1799.99 -655.375 1823.62 -662.419 1822.18 -681.299C1821.4 -690.387 1815.66 -701.587 1806.97 -713.124C1803.27 -716.67 1800.6 -723.058 1794.95 -732.263C1778.68 -758.84 1751.73 -791.069 1725.35 -823.868C1716.27 -835.306 1704.66 -847.482 1701.23 -859.283C1697.78 -871.001 1703.07 -882.102 1704.54 -892.924C1707.43 -915.219 1709.38 -937.954 1716.52 -959.445C1722.58 -977.529 1734.75 -994.611 1760.06 -1005.07C1771.57 -1009.8 1782.69 -1013.65 1790.25 -1020.99C1798.18 -1028.63 1801.69 -1038.25 1804.24 -1047.36C1810.03 -1067.91 1809.9 -1089.77 1806.87 -1111.27C1803.85 -1132.78 1797.87 -1153.84 1792.62 -1173.37C1784.33 -1203.88 1774.35 -1232.26 1755.11 -1254.71C1735.92 -1277.01 1707.43 -1293.56 1657.99 -1297.83C1601.05 -1302.89 1539.94 -1307.89 1489.35 -1320.4C1438.58 -1332.98 1396.83 -1352.51 1363.4 -1377.59C1334.91 -1398.58 1311.35 -1423.35 1287.03 -1445.88C1262.73 -1468.28 1237.34 -1488.21 1205.61 -1499.44C1174.09 -1510.7 1135.17 -1515.01 1090.74 -1499.24C1045.99 -1483.37 990.86 -1457.7 935.598 -1422.2C880.052 -1386.87 826.096 -1342.44 778.323 -1307.26C730.197 -1271.96 687.084 -1247.47 642.768 -1249.2C598.634 -1250.6 552.053 -1279.84 509.54 -1308.24C467.232 -1336.38 428.666 -1368.19 401.081 -1391.27C338.623 -1444.13 290.892 -1441.25 331.23 -1334.97C363.107 -1252.11 427.967 -1145.19 485.03 -1061.2C516.897 -1013.92 549.743 -970.37 573.716 -934.374C589.085 -911.225 599.98 -893.646 610.564 -879.243C629.947 -852.862 647.272 -829.328 662.309 -808.624C690.53 -769.752 712.574 -737.795 725.111 -710.712C737.579 -683.714 738.57 -662.501 728.322 -645.812C717.413 -628.095 694.328 -615.344 661.44 -606.534C628.685 -597.637 585.914 -592.892 538.517 -589.11C491.308 -585.187 439.443 -582.104 393.014 -573.978C369.292 -569.761 346.971 -564.215 327.673 -556.533C292.233 -542.4 265.785 -520.658 261.021 -488.965C256.863 -462.013 266.758 -428.639 286.412 -392.967C296.071 -375.422 308.228 -355.185 323.099 -334.426C350.148 -296.726 389.941 -255.407 440.018 -227.335L440.013 -227.335Z" stroke="url(#paint29_linear_33_255)" stroke-width="1.5"/>
</g>
<defs>
<linearGradient id="paint0_linear_33_255" x1="1232.1" y1="-1406.78" x2="585.581" y2="-854.033" gradientUnits="userSpaceOnUse">
<stop stop-color="#CACACA" stop-opacity="0"/>
<stop offset="1" stop-color="#CACACA" stop-opacity="0.24"/>
</linearGradient>
<linearGradient id="paint1_linear_33_255" x1="1234.94" y1="-1415.7" x2="584.722" y2="-854.252" gradientUnits="userSpaceOnUse">
<stop stop-color="#CACACA" stop-opacity="0"/>
<stop offset="0.98551" stop-color="#CACACA" stop-opacity="0.93"/>
</linearGradient>
<linearGradient id="paint2_linear_33_255" x1="1237.68" y1="-1424.64" x2="593.182" y2="-862.979" gradientUnits="userSpaceOnUse">
<stop stop-color="#CACACA" stop-opacity="0"/>
<stop offset="0.98551" stop-color="#CACACA" stop-opacity="0.93"/>
</linearGradient>
<linearGradient id="paint3_linear_33_255" x1="1240.7" y1="-1433.62" x2="602.069" y2="-871.907" gradientUnits="userSpaceOnUse">
<stop stop-color="#CACACA" stop-opacity="0"/>
<stop offset="0.98551" stop-color="#CACACA" stop-opacity="0.93"/>
</linearGradient>
<linearGradient id="paint4_linear_33_255" x1="1243.96" y1="-1442.68" x2="611.209" y2="-881.05" gradientUnits="userSpaceOnUse">
<stop stop-color="#CACACA" stop-opacity="0"/>
<stop offset="0.98551" stop-color="#CACACA" stop-opacity="0.93"/>
</linearGradient>
<linearGradient id="paint5_linear_33_255" x1="1247.5" y1="-1451.91" x2="620.558" y2="-890.516" gradientUnits="userSpaceOnUse">
<stop stop-color="#CACACA" stop-opacity="0"/>
<stop offset="0.98551" stop-color="#CACACA" stop-opacity="0.93"/>
</linearGradient>
<linearGradient id="paint6_linear_33_255" x1="1251.25" y1="-1461.24" x2="630" y2="-900.206" gradientUnits="userSpaceOnUse">
<stop stop-color="#CACACA" stop-opacity="0"/>
<stop offset="0.98551" stop-color="#CACACA" stop-opacity="0.93"/>
</linearGradient>
<linearGradient id="paint7_linear_33_255" x1="1255.29" y1="-1470.69" x2="639.518" y2="-910.147" gradientUnits="userSpaceOnUse">
<stop stop-color="#CACACA" stop-opacity="0"/>
<stop offset="0.98551" stop-color="#CACACA" stop-opacity="0.93"/>
</linearGradient>
<linearGradient id="paint8_linear_33_255" x1="1259.55" y1="-1480.28" x2="649.068" y2="-920.342" gradientUnits="userSpaceOnUse">
<stop stop-color="#CACACA" stop-opacity="0"/>
<stop offset="0.98551" stop-color="#CACACA" stop-opacity="0.93"/>
</linearGradient>
<linearGradient id="paint9_linear_33_255" x1="1264.06" y1="-1490.02" x2="658.543" y2="-930.782" gradientUnits="userSpaceOnUse">
<stop stop-color="#CACACA" stop-opacity="0"/>
<stop offset="0.98551" stop-color="#CACACA" stop-opacity="0.93"/>
</linearGradient>
<linearGradient id="paint10_linear_33_255" x1="1268.84" y1="-1499.92" x2="667.784" y2="-941.463" gradientUnits="userSpaceOnUse">
<stop stop-color="#CACACA" stop-opacity="0"/>
<stop offset="0.98551" stop-color="#CACACA" stop-opacity="0.93"/>
</linearGradient>
<linearGradient id="paint11_linear_33_255" x1="1273.87" y1="-1510.03" x2="676.53" y2="-952.385" gradientUnits="userSpaceOnUse">
<stop stop-color="#CACACA" stop-opacity="0"/>
<stop offset="0.98551" stop-color="#CACACA" stop-opacity="0.93"/>
</linearGradient>
<linearGradient id="paint12_linear_33_255" x1="1278.85" y1="-1519.93" x2="684.353" y2="-963.197" gradientUnits="userSpaceOnUse">
<stop stop-color="#CACACA" stop-opacity="0"/>
<stop offset="0.98551" stop-color="#CACACA" stop-opacity="0.93"/>
</linearGradient>
<linearGradient id="paint13_linear_33_255" x1="1284.04" y1="-1529.88" x2="691.364" y2="-974.095" gradientUnits="userSpaceOnUse">
<stop stop-color="#CACACA" stop-opacity="0"/>
<stop offset="0.98551" stop-color="#CACACA" stop-opacity="0.93"/>
</linearGradient>
<linearGradient id="paint14_linear_33_255" x1="1289.42" y1="-1540.69" x2="695.162" y2="-985.594" gradientUnits="userSpaceOnUse">
<stop stop-color="#CACACA" stop-opacity="0"/>
<stop offset="0.98551" stop-color="#CACACA" stop-opacity="0.93"/>
</linearGradient>
<linearGradient id="paint15_linear_33_255" x1="1295.03" y1="-1551.6" x2="698.14" y2="-997.244" gradientUnits="userSpaceOnUse">
<stop stop-color="#CACACA" stop-opacity="0"/>
<stop offset="0.98551" stop-color="#CACACA" stop-opacity="0.93"/>
</linearGradient>
<linearGradient id="paint16_linear_33_255" x1="1300.68" y1="-1562.19" x2="701.336" y2="-1008.72" gradientUnits="userSpaceOnUse">
<stop stop-color="#CACACA" stop-opacity="0"/>
<stop offset="0.98551" stop-color="#CACACA" stop-opacity="0.93"/>
</linearGradient>
<linearGradient id="paint17_linear_33_255" x1="1306.44" y1="-1572.56" x2="704.747" y2="-1020.15" gradientUnits="userSpaceOnUse">
<stop stop-color="#CACACA" stop-opacity="0"/>
<stop offset="0.98551" stop-color="#CACACA" stop-opacity="0.93"/>
</linearGradient>
<linearGradient id="paint18_linear_33_255" x1="1312.06" y1="-1582.72" x2="708.167" y2="-1031.31" gradientUnits="userSpaceOnUse">
<stop stop-color="#CACACA" stop-opacity="0"/>
<stop offset="0.98551" stop-color="#CACACA" stop-opacity="0.93"/>
</linearGradient>
<linearGradient id="paint19_linear_33_255" x1="1318.1" y1="-1592.56" x2="712.132" y2="-1042.59" gradientUnits="userSpaceOnUse">
<stop stop-color="#CACACA" stop-opacity="0"/>
<stop offset="0.98551" stop-color="#CACACA" stop-opacity="0.93"/>
</linearGradient>
<linearGradient id="paint20_linear_33_255" x1="1322.33" y1="-1602.52" x2="714.511" y2="-1052.58" gradientUnits="userSpaceOnUse">
<stop stop-color="#CACACA" stop-opacity="0"/>
<stop offset="0.98551" stop-color="#CACACA" stop-opacity="0.93"/>
</linearGradient>
<linearGradient id="paint21_linear_33_255" x1="1324.64" y1="-1612.61" x2="715.193" y2="-1061.15" gradientUnits="userSpaceOnUse">
<stop stop-color="#CACACA" stop-opacity="0"/>
<stop offset="0.98551" stop-color="#CACACA" stop-opacity="0.93"/>
</linearGradient>
<linearGradient id="paint22_linear_33_255" x1="1326.96" y1="-1622.51" x2="715.988" y2="-1069.6" gradientUnits="userSpaceOnUse">
<stop stop-color="#CACACA" stop-opacity="0"/>
<stop offset="0.98551" stop-color="#CACACA" stop-opacity="0.93"/>
</linearGradient>
<linearGradient id="paint23_linear_33_255" x1="1329.34" y1="-1632.25" x2="716.922" y2="-1077.95" gradientUnits="userSpaceOnUse">
<stop stop-color="#CACACA" stop-opacity="0"/>
<stop offset="0.98551" stop-color="#CACACA" stop-opacity="0.93"/>
</linearGradient>
<linearGradient id="paint24_linear_33_255" x1="1331.75" y1="-1641.84" x2="717.987" y2="-1086.22" gradientUnits="userSpaceOnUse">
<stop stop-color="#CACACA" stop-opacity="0"/>
<stop offset="0.98551" stop-color="#CACACA" stop-opacity="0.93"/>
</linearGradient>
<linearGradient id="paint25_linear_33_255" x1="1334.29" y1="-1651.28" x2="719.262" y2="-1094.37" gradientUnits="userSpaceOnUse">
<stop stop-color="#CACACA" stop-opacity="0"/>
<stop offset="0.98551" stop-color="#CACACA" stop-opacity="0.93"/>
</linearGradient>
<linearGradient id="paint26_linear_33_255" x1="1336.94" y1="-1660.57" x2="720.724" y2="-1102.44" gradientUnits="userSpaceOnUse">
<stop stop-color="#CACACA" stop-opacity="0"/>
<stop offset="0.98551" stop-color="#CACACA" stop-opacity="0.93"/>
</linearGradient>
<linearGradient id="paint27_linear_33_255" x1="1339.71" y1="-1669.8" x2="722.347" y2="-1110.46" gradientUnits="userSpaceOnUse">
<stop stop-color="#CACACA" stop-opacity="0"/>
<stop offset="0.98551" stop-color="#CACACA" stop-opacity="0.93"/>
</linearGradient>
<linearGradient id="paint28_linear_33_255" x1="1342.55" y1="-1678.83" x2="724.137" y2="-1118.36" gradientUnits="userSpaceOnUse">
<stop stop-color="#CACACA" stop-opacity="0"/>
<stop offset="0.98551" stop-color="#CACACA" stop-opacity="0.93"/>
</linearGradient>
<linearGradient id="paint29_linear_33_255" x1="1345.53" y1="-1687.81" x2="726.116" y2="-1126.24" gradientUnits="userSpaceOnUse">
<stop stop-color="#CACACA" stop-opacity="0"/>
<stop offset="0.98551" stop-color="#CACACA" stop-opacity="0.93"/>
</linearGradient>
</defs>
</svg>
